<svg xmlns="http://www.w3.org/2000/svg" viewBox="0 0 240 160">
<!-- s18: гравюра тушью, штриховка посчитана по контурам, бумажные плоскости pap -->
<path class="ln" stroke-width="0.3" d="M6 13.6H234M6 19.2H234M6 24.8H234M6 30.4H234M6 36H234M6 41.6H234M6 47.2H234M6 52.8H234M6 58.4H234M6 64H234M6 69.6H234M6 75.2H234M6 80.8H234M6 86.4H234M6 87.04H234"/>
<path class="ln" stroke-width="0.3" d="M18 8V13.6M30 8V13.6M42 8V13.6M54 8V13.6M66 8V13.6M78 8V13.6M90 8V13.6M102 8V13.6M114 8V13.6M126 8V13.6M138 8V13.6M150 8V13.6M162 8V13.6M174 8V13.6M186 8V13.6M198 8V13.6M210 8V13.6M222 8V13.6M12 13.6V19.2M24 13.6V19.2M36 13.6V19.2M48 13.6V19.2M60 13.6V19.2M72 13.6V19.2M84 13.6V19.2M96 13.6V19.2M108 13.6V19.2M120 13.6V19.2M132 13.6V19.2M144 13.6V19.2M156 13.6V19.2M168 13.6V19.2M180 13.6V19.2M192 13.6V19.2M204 13.6V19.2M216 13.6V19.2M228 13.6V19.2M18 19.2V24.8M30 19.2V24.8M42 19.2V24.8M54 19.2V24.8M66 19.2V24.8M78 19.2V24.8M90 19.2V24.8M102 19.2V24.8M114 19.2V24.8M126 19.2V24.8M138 19.2V24.8M150 19.2V24.8M162 19.2V24.8M174 19.2V24.8M186 19.2V24.8M198 19.2V24.8M210 19.2V24.8M222 19.2V24.8M12 24.8V30.4M24 24.8V30.4M36 24.8V30.4M48 24.8V30.4M60 24.8V30.4M72 24.8V30.4M84 24.8V30.4M96 24.8V30.4M108 24.8V30.4M120 24.8V30.4M132 24.8V30.4M144 24.8V30.4M156 24.8V30.4M168 24.8V30.4M180 24.8V30.4M192 24.8V30.4M204 24.8V30.4M216 24.8V30.4M228 24.8V30.4M18 30.4V36M30 30.4V36M42 30.4V36M54 30.4V36M66 30.4V36M78 30.4V36M90 30.4V36M102 30.4V36M114 30.4V36M126 30.4V36M138 30.4V36M150 30.4V36M162 30.4V36M174 30.4V36M186 30.4V36M198 30.4V36M210 30.4V36M222 30.4V36M12 36V41.6M24 36V41.6M36 36V41.6M48 36V41.6M60 36V41.6M72 36V41.6M84 36V41.6M96 36V41.6M108 36V41.6M120 36V41.6M132 36V41.6M144 36V41.6M156 36V41.6M168 36V41.6M180 36V41.6M192 36V41.6M204 36V41.6M216 36V41.6M228 36V41.6M18 41.6V47.2M30 41.6V47.2M42 41.6V47.2M54 41.6V47.2M66 41.6V47.2M78 41.6V47.2M90 41.6V47.2M102 41.6V47.2M114 41.6V47.2M126 41.6V47.2M138 41.6V47.2M150 41.6V47.2M162 41.6V47.2M174 41.6V47.2M186 41.6V47.2M198 41.6V47.2M210 41.6V47.2M222 41.6V47.2M12 47.2V52.8M24 47.2V52.8M36 47.2V52.8M48 47.2V52.8M60 47.2V52.8M72 47.2V52.8M84 47.2V52.8M96 47.2V52.8M108 47.2V52.8M120 47.2V52.8M132 47.2V52.8M144 47.2V52.8M156 47.2V52.8M168 47.2V52.8M180 47.2V52.8M192 47.2V52.8M204 47.2V52.8M216 47.2V52.8M228 47.2V52.8M18 52.8V58.4M30 52.8V58.4M42 52.8V58.4M54 52.8V58.4M66 52.8V58.4M78 52.8V58.4M90 52.8V58.4M102 52.8V58.4M114 52.8V58.4M126 52.8V58.4M138 52.8V58.4M150 52.8V58.4M162 52.8V58.4M174 52.8V58.4M186 52.8V58.4M198 52.8V58.4M210 52.8V58.4M222 52.8V58.4M12 58.4V64M24 58.4V64M36 58.4V64M48 58.4V64M60 58.4V64M72 58.4V64M84 58.4V64M96 58.4V64M108 58.4V64M120 58.4V64M132 58.4V64M144 58.4V64M156 58.4V64M168 58.4V64M180 58.4V64M192 58.4V64M204 58.4V64M216 58.4V64M228 58.4V64M18 64V69.6M30 64V69.6M42 64V69.6M54 64V69.6M66 64V69.6M78 64V69.6M90 64V69.6M102 64V69.6M114 64V69.6M126 64V69.6M138 64V69.6M150 64V69.6M162 64V69.6M174 64V69.6M186 64V69.6M198 64V69.6M210 64V69.6M222 64V69.6M12 69.6V75.2M24 69.6V75.2M36 69.6V75.2M48 69.6V75.2M60 69.6V75.2M72 69.6V75.2M84 69.6V75.2M96 69.6V75.2M108 69.6V75.2M120 69.6V75.2M132 69.6V75.2M144 69.6V75.2M156 69.6V75.2M168 69.6V75.2M180 69.6V75.2M192 69.6V75.2M204 69.6V75.2M216 69.6V75.2M228 69.6V75.2M18 75.2V80.8M30 75.2V80.8M42 75.2V80.8M54 75.2V80.8M66 75.2V80.8M78 75.2V80.8M90 75.2V80.8M102 75.2V80.8M114 75.2V80.8M126 75.2V80.8M138 75.2V80.8M150 75.2V80.8M162 75.2V80.8M174 75.2V80.8M186 75.2V80.8M198 75.2V80.8M210 75.2V80.8M222 75.2V80.8M12 80.8V86.4M24 80.8V86.4M36 80.8V86.4M48 80.8V86.4M60 80.8V86.4M72 80.8V86.4M84 80.8V86.4M96 80.8V86.4M108 80.8V86.4M120 80.8V86.4M132 80.8V86.4M144 80.8V86.4M156 80.8V86.4M168 80.8V86.4M180 80.8V86.4M192 80.8V86.4M204 80.8V86.4M216 80.8V86.4M228 80.8V86.4M18 86.4V87.04M30 86.4V87.04M42 86.4V87.04M54 86.4V87.04M66 86.4V87.04M78 86.4V87.04M90 86.4V87.04M102 86.4V87.04M114 86.4V87.04M126 86.4V87.04M138 86.4V87.04M150 86.4V87.04M162 86.4V87.04M174 86.4V87.04M186 86.4V87.04M198 86.4V87.04M210 86.4V87.04M222 86.4V87.04"/>
<path class="ln" stroke-width="0.27" d="M56 12.7q1 0.8 2.2 0.3M120 12.7q1 0.8 2.2 0.3M125 18.3q1 0.8 2.2 0.3M184 18.3q1 0.8 2.2 0.3M20 23.9q1 0.8 2.2 0.3M156 23.9q1 0.8 2.2 0.3M215 23.9q1 0.8 2.2 0.3M146 29.5q1 0.8 2.2 0.3M162 29.5q1 0.8 2.2 0.3M194 29.5q1 0.8 2.2 0.3M219 29.5q1 0.8 2.2 0.3M9 35.1q1 0.8 2.2 0.3M142 35.1q1 0.8 2.2 0.3M206 40.7q1 0.8 2.2 0.3M114 51.9q1 0.8 2.2 0.3M159 51.9q1 0.8 2.2 0.3M198 51.9q1 0.8 2.2 0.3M48 57.5q1 0.8 2.2 0.3M132 57.5q1 0.8 2.2 0.3M62 63.1q1 0.8 2.2 0.3M182 63.1q1 0.8 2.2 0.3M104 68.7q1 0.8 2.2 0.3M131 68.7q1 0.8 2.2 0.3M204 68.7q1 0.8 2.2 0.3M42 74.3q1 0.8 2.2 0.3M111 74.3q1 0.8 2.2 0.3M160 74.3q1 0.8 2.2 0.3M93 79.9q1 0.8 2.2 0.3M166 79.9q1 0.8 2.2 0.3M86 85.5q1 0.8 2.2 0.3M101 85.5q1 0.8 2.2 0.3M146 85.5q1 0.8 2.2 0.3M195 85.5q1 0.8 2.2 0.3"/>
<path class="ln" stroke-width="0.7" d="M6 87.04 H234"/>
<path class="ln" stroke-width="0.26" d="M232.19 87.14L233.89 88.56M229.86 87.14L233.2 89.94M227.53 87.14L230.87 89.94M225.19 87.14L228.54 89.94M222.86 87.14L226.2 89.94M220.52 87.14L223.87 89.94M218.19 87.14L221.54 89.94M215.86 87.14L219.2 89.94M213.52 87.14L216.87 89.94M211.19 87.14L214.54 89.94M208.86 87.14L212.2 89.94M206.52 87.14L209.87 89.94M204.19 87.14L207.53 89.94M201.86 87.14L205.2 89.94M199.52 87.14L202.87 89.94M197.19 87.14L200.53 89.94M194.85 87.14L198.2 89.94M192.52 87.14L195.87 89.94M190.19 87.14L193.53 89.94M187.85 87.14L191.2 89.94M185.52 87.14L188.87 89.94M183.19 87.14L186.53 89.94M180.85 87.14L184.2 89.94M178.52 87.14L181.87 89.94M176.19 87.14L179.53 89.94M173.85 87.14L177.2 89.94M171.52 87.14L174.86 89.94M169.19 87.14L172.53 89.94M166.85 87.14L170.2 89.94M164.52 87.14L167.86 89.94M162.18 87.14L165.53 89.94M159.85 87.14L163.2 89.94M157.52 87.14L160.86 89.94M155.18 87.14L158.53 89.94M152.85 87.14L156.2 89.94M150.52 87.14L153.86 89.94M148.18 87.14L151.53 89.94M145.85 87.14L149.2 89.94M143.52 87.14L146.86 89.94M141.18 87.14L144.53 89.94M138.85 87.14L142.19 89.94M136.52 87.14L139.86 89.94M134.18 87.14L137.53 89.94M131.85 87.14L135.19 89.94M129.51 87.14L132.86 89.94M127.18 87.14L130.53 89.94M124.85 87.14L128.19 89.94M122.51 87.14L125.86 89.94M120.18 87.14L123.53 89.94M117.85 87.14L121.19 89.94M115.51 87.14L118.86 89.94M113.18 87.14L116.52 89.94M110.85 87.14L114.19 89.94M108.51 87.14L111.86 89.94M106.18 87.14L109.52 89.94M103.85 87.14L107.19 89.94M101.51 87.14L104.86 89.94M99.18 87.14L102.52 89.94M96.84 87.14L100.19 89.94M94.51 87.14L97.86 89.94M92.18 87.14L95.52 89.94M89.84 87.14L93.19 89.94M87.51 87.14L90.86 89.94M85.18 87.14L88.52 89.94M82.84 87.14L86.19 89.94M80.51 87.14L83.85 89.94M78.18 87.14L81.52 89.94M75.84 87.14L79.19 89.94M73.51 87.14L76.85 89.94M71.17 87.14L74.52 89.94M68.84 87.14L72.19 89.94M66.51 87.14L69.85 89.94M64.17 87.14L67.52 89.94M61.84 87.14L65.19 89.94M59.51 87.14L62.85 89.94M57.17 87.14L60.52 89.94M54.84 87.14L58.19 89.94M52.51 87.14L55.85 89.94M50.17 87.14L53.52 89.94M47.84 87.14L51.18 89.94M45.51 87.14L48.85 89.94M43.17 87.14L46.52 89.94M40.84 87.14L44.18 89.94M38.5 87.14L41.85 89.94M36.17 87.14L39.52 89.94M33.84 87.14L37.18 89.94M31.5 87.14L34.85 89.94M29.17 87.14L32.52 89.94M26.84 87.14L30.18 89.94M24.5 87.14L27.85 89.94M22.17 87.14L25.52 89.94M19.84 87.14L23.18 89.94M17.5 87.14L20.85 89.94M15.17 87.14L18.51 89.94M12.84 87.14L16.18 89.94M10.5 87.14L13.85 89.94M8.17 87.14L11.51 89.94M6.11 87.37L9.18 89.94M6.11 89.33L6.85 89.94"/>
<path class="ln" stroke-width="0.3" d="M56.7 90.04L-34 156M67.25 90.04L-8.33 156M77.8 90.04L17.33 156M88.35 90.04L43 156M98.9 90.04L68.67 156M109.45 90.04L94.33 156M120 90.04L120 156M130.55 90.04L145.67 156M141.1 90.04L171.33 156M151.65 90.04L197 156M162.2 90.04L222.67 156M172.75 90.04L248.33 156M183.31 90.04L274 156M6 99.27H234M6 112.47H234M6 129.62H234M6 149.4H234"/>
<path class="ln" stroke-width="0.2" d="M64.2 90.43L65.07 91.15M61.09 90.43L63.55 92.48M57.98 90.43L62.02 93.81M55.93 91.32L60.49 95.14M54.27 92.53L58.97 96.47M52.6 93.74L57.44 97.8M50.93 94.95L55.62 98.88M49.26 96.16L52.51 98.88M47.6 97.38L49.39 98.88M45.93 98.59L46.28 98.88"/>
<path class="ln" stroke-width="0.2" d="M38.04 112.86L39.15 113.78M34.93 112.86L37.62 115.11M31.82 112.86L36.09 116.44M28.71 112.86L34.57 117.78M25.96 113.16L33.04 119.11M24.43 114.49L31.52 120.44M22.9 115.81L29.99 121.77M21.36 117.14L28.47 123.1M19.83 118.46L26.94 124.43M18.3 119.78L25.42 125.76M16.76 121.11L23.89 127.09M15.23 122.43L22.37 128.42M13.7 123.76L20.22 129.23M12.16 125.08L17.11 129.23M10.63 126.41L14 129.23M9.1 127.73L10.89 129.23M7.56 129.05L7.78 129.23"/>
<path class="ln" stroke-width="0.2" d="M4.27 149.79L5.54 150.85M1.16 149.79L5.54 153.47M-1.12 150.49L4.99 155.61M-2.65 151.82L1.88 155.61M-4.17 153.15L-1.23 155.61M-5.69 154.48L-4.34 155.61"/>
<path class="ln" stroke-width="0.2" d="M65.87 99.66L67.17 100.74M62.76 99.66L65.82 102.22M59.65 99.66L64.46 103.7M56.83 99.91L63.11 105.17M55.31 101.24L61.76 106.65M53.78 102.57L60.41 108.13M52.26 103.9L59.05 109.6M50.74 105.23L57.7 111.08M49.21 106.56L55.79 112.08M47.69 107.9L52.68 112.08M46.16 109.23L49.57 112.08M44.64 110.56L46.46 112.08M43.11 111.89L43.34 112.08"/>
<path class="ln" stroke-width="0.2" d="M39.81 130.01L40.12 130.26M36.7 130.01L38.76 131.74M33.59 130.01L37.41 133.21M30.48 130.01L36.06 134.69M27.37 130.01L34.7 136.16M24.25 130.01L33.35 137.64M21.87 130.62L32 139.12M20.62 132.17L30.65 140.59M19.36 133.73L29.29 142.07M18.11 135.29L27.94 143.54M16.86 136.85L26.59 145.02M15.6 138.41L25.23 146.49M14.35 139.97L23.88 147.97M13.1 141.53L22.02 149.01M11.84 143.09L18.9 149.01M10.59 144.65L15.79 149.01M9.34 146.21L12.68 149.01M8.08 147.77L9.57 149.01"/>
<path class="ln" stroke-width="0.2" d="M85.98 90.43L86.86 91.16M82.87 90.43L85.72 92.81M79.76 90.43L84.58 94.47M77.56 91.19L83.44 96.12M76.21 92.66L82.3 97.78M74.85 94.14L80.51 98.88M73.5 95.61L77.4 98.88M72.15 97.09L74.29 98.88M70.79 98.56L71.17 98.88"/>
<path class="ln" stroke-width="0.2" d="M69.16 112.86L70.92 114.34M66.04 112.86L69.78 115.99M62.93 112.86L68.65 117.65M59.82 112.86L67.51 119.3M57.27 113.33L66.37 120.96M55.92 114.8L65.23 122.62M54.56 116.28L64.09 124.27M53.21 117.75L62.95 125.93M51.86 119.23L61.82 127.58M50.51 120.7L60.67 129.23M49.15 122.18L57.56 129.23M47.8 123.66L54.45 129.23M46.45 125.13L51.34 129.23M45.1 126.61L48.23 129.23M43.74 128.08L45.11 129.23"/>
<path class="ln" stroke-width="0.2" d="M44.72 149.79L45.87 150.76M41.6 149.79L44.74 152.41M38.49 149.79L43.6 154.07M35.38 149.79L42.33 155.61M32.27 149.79L39.22 155.61M29.16 149.79L36.1 155.61M26.05 149.79L32.99 155.61M23.45 150.21L29.88 155.61M22.09 151.69L26.77 155.61M20.74 153.17L23.66 155.61M19.39 154.64L20.55 155.61"/>
<path class="ln" stroke-width="0.2" d="M90.76 99.66L93 101.53M87.65 99.66L92.13 103.42M84.54 99.66L91.27 105.3M82.08 100.2L90.4 107.19M80.94 101.86L89.54 109.07M79.81 103.52L88.68 110.96M78.67 105.17L86.91 112.08M77.53 106.83L83.79 112.08M76.39 108.49L80.68 112.08M75.25 110.14L77.57 112.08M74.12 111.8L74.46 112.08"/>
<path class="ln" stroke-width="0.2" d="M77.15 130.01L79.17 131.7M74.04 130.01L78.3 133.59M70.93 130.01L77.44 135.47M67.81 130.01L76.58 137.36M64.7 130.01L75.71 139.24M61.6 130.01L74.85 141.13M60.46 131.67L73.98 143.01M59.32 133.32L73.12 144.9M58.18 134.98L72.25 146.78M57.04 136.63L71.39 148.67M55.9 138.29L68.69 149.01M54.76 139.94L65.58 149.01M53.62 141.6L62.46 149.01M52.49 143.25L59.35 149.01M51.35 144.91L56.24 149.01M50.21 146.56L53.13 149.01M49.07 148.22L50.02 149.01"/>
<path class="ln" stroke-width="0.2" d="M107.77 90.43L108.64 91.16M104.65 90.43L108.14 93.35M101.54 90.43L107.64 95.54M99.1 90.99L107.14 97.73M98.24 92.87L105.4 98.88M97.37 94.76L102.29 98.88M96.51 96.65L99.18 98.88M95.64 98.53L96.07 98.88"/>
<path class="ln" stroke-width="0.2" d="M103.38 112.86L103.63 113.06M100.27 112.86L103.12 115.25M97.16 112.86L102.62 117.44M94.05 112.86L102.12 119.63M90.94 112.86L101.62 121.82M88.73 113.62L101.12 124.01M87.87 115.5L100.62 126.2M87 117.39L100.11 128.39M86.14 119.27L98.01 129.23M85.27 121.16L94.9 129.23M84.41 123.04L91.79 129.23M83.55 124.93L88.68 129.23M82.68 126.82L85.56 129.23M81.82 128.7L82.45 129.23"/>
<path class="ln" stroke-width="0.2" d="M94.5 149.79L95.09 150.28M91.39 149.79L94.59 152.47M88.28 149.79L94.09 154.66M85.16 149.79L92.11 155.61M82.05 149.79L89 155.61M78.94 149.79L85.89 155.61M75.83 149.79L82.78 155.61M72.72 149.79L79.66 155.61M71.44 151.33L76.55 155.61M70.58 153.21L73.44 155.61M69.72 155.1L70.33 155.61"/>
<path class="ln" stroke-width="0.2" d="M118.77 99.66L119.54 100.31M115.65 99.66L119.54 102.92M112.54 99.66L119.54 105.53M109.43 99.66L119.54 108.14M107.55 100.69L119.54 110.75M107.05 102.88L118.02 112.08M106.55 105.07L114.91 112.08M106.05 107.26L111.8 112.08M105.55 109.45L108.69 112.08M105.05 111.64L105.57 112.08"/>
<path class="ln" stroke-width="0.2" d="M117.6 130.01L119.54 131.64M114.49 130.01L119.54 134.25M111.37 130.01L119.54 136.86M108.26 130.01L119.54 139.47M105.15 130.01L119.54 142.08M102.04 130.01L119.54 144.69M100.53 131.35L119.54 147.3M100.03 133.54L118.47 149.01M99.53 135.73L115.36 149.01M99.02 137.92L112.25 149.01M98.52 140.11L109.14 149.01M98.02 142.3L106.03 149.01M97.52 144.49L102.91 149.01M97.01 146.67L99.8 149.01"/>
<path class="ln" stroke-width="0.2" d="M129.55 90.43L130.44 91.18M126.43 90.43L131.18 94.41M123.32 90.43L131.93 97.64M120.46 90.63L130.29 98.88M120.46 93.25L127.18 98.88M120.46 95.86L124.07 98.88M120.46 98.47L120.96 98.88"/>
<path class="ln" stroke-width="0.2" d="M134.5 112.86L135.62 113.8M131.38 112.86L136.36 117.03M128.27 112.86L137.11 120.27M125.16 112.86L137.85 123.5M122.05 112.86L138.59 126.73M120.46 114.13L138.46 129.23M120.46 116.74L135.35 129.23M120.46 119.35L132.24 129.23M120.46 121.96L129.12 129.23M120.46 124.57L126.01 129.23M120.46 127.19L122.9 129.23"/>
<path class="ln" stroke-width="0.2" d="M141.17 149.79L144.52 152.6M138.06 149.79L145.01 155.61M134.95 149.79L141.89 155.61M131.84 149.79L138.78 155.61M128.72 149.79L135.67 155.61M125.61 149.79L132.56 155.61M122.5 149.79L129.45 155.61M120.46 150.68L126.34 155.61M120.46 153.29L123.22 155.61"/>
<path class="ln" stroke-width="0.2" d="M143.66 99.66L146.2 101.79M140.55 99.66L148.15 106.04M137.43 99.66L150.09 110.28M134.32 99.66L149.13 112.08M133.59 101.65L146.02 112.08M134.32 104.88L142.91 112.08M135.06 108.11L139.8 112.08M135.8 111.34L136.69 112.08"/>
<path class="ln" stroke-width="0.2" d="M158.05 130.01L159.81 131.49M154.93 130.01L161.76 135.73M151.82 130.01L163.71 139.98M148.71 130.01L165.65 144.22M145.6 130.01L167.6 148.46M142.49 130.01L165.14 149.01M140.25 130.74L162.03 149.01M140.99 133.97L158.92 149.01M141.73 137.2L155.81 149.01M142.47 140.44L152.7 149.01M143.22 143.67L149.59 149.01M143.96 146.9L146.47 149.01"/>
<path class="ln" stroke-width="0.2" d="M151.33 90.43L152.26 91.21M148.21 90.43L156.51 97.39M145.1 90.43L155.18 98.88M141.99 90.43L152.07 98.88M143.23 94.08L148.96 98.88M145.18 98.32L145.85 98.88"/>
<path class="ln" stroke-width="0.2" d="M165.61 112.86L169.23 115.89M162.5 112.86L173.47 122.06M159.39 112.86L177.71 128.23M156.28 112.86L175.8 129.23M153.16 112.86L172.68 129.23M152.96 115.29L169.57 129.23M154.9 119.53L166.46 129.23M156.84 123.78L163.35 129.23M158.79 128.02L160.24 129.23"/>
<path class="ln" stroke-width="0.2" d="M190.95 149.79L194.69 152.92M187.84 149.79L194.79 155.61M184.73 149.79L191.68 155.61M181.62 149.79L188.57 155.61M178.51 149.79L185.45 155.61M175.4 149.79L182.34 155.61M172.28 149.79L179.23 155.61M169.17 149.79L176.12 155.61M170.46 153.47L173.01 155.61"/>
<path class="ln" stroke-width="0.2" d="M168.55 99.66L178.78 108.24M165.44 99.66L180.25 112.08M162.33 99.66L177.14 112.08M159.21 99.66L174.03 112.08M161.67 104.33L170.91 112.08M165.91 110.49L167.8 112.08"/>
<path class="ln" stroke-width="0.2" d="M198.49 130.01L199.5 130.85M195.38 130.01L209.89 142.18M192.27 130.01L214.93 149.01M189.16 130.01L211.81 149.01M186.05 130.01L208.7 149.01M182.94 130.01L205.59 149.01M179.83 130.01L202.48 149.01M182.88 135.18L199.37 149.01M187.13 141.35L196.26 149.01M191.38 147.53L193.15 149.01"/>
<path class="ln" stroke-width="0.2" d="M173.11 90.43L174.98 92M169.99 90.43L180.07 98.88M166.88 90.43L176.96 98.88M163.77 90.43L173.85 98.88M169.36 97.72L170.74 98.88"/>
<path class="ln" stroke-width="0.2" d="M196.73 112.86L216.24 129.23M193.61 112.86L213.13 129.23M190.5 112.86L210.02 129.23M187.39 112.86L206.91 129.23M184.28 112.86L203.8 129.23M190.06 120.31L200.69 129.23"/>
<path class="ln" stroke-width="0.2" d="M231.4 149.79L233.54 151.58M228.29 149.79L233.54 154.19M225.18 149.79L232.13 155.61M222.07 149.79L229.01 155.61M218.96 149.79L225.9 155.61M221.19 154.27L222.79 155.61"/>
<path class="ln" stroke-width="0.2" d="M197.15 100.16L211.36 112.08M193.44 99.66L208.25 112.08M190.33 99.66L205.14 112.08M187.22 99.66L202.03 112.08M184.11 99.66L198.92 112.08"/>
<path class="ln" stroke-width="0.2" d="M232.72 130.01L233.54 130.69M229.61 130.01L233.54 133.3M226.5 130.01L233.54 135.91M223.39 130.01L233.54 138.53M220.28 130.01L233.54 141.14M234.46 144.52L239.82 149.01M234.46 147.13L236.71 149.01"/>
<g transform="matrix(0.82 0 0 0.82 21.6 -4.8)">
<path class="ln" stroke-width="0.24" d="M59.55 112.5L125.45 112.5M60.27 113.4L126.53 113.4M60.99 114.3L127.61 114.3M61.71 115.2L128.69 115.2M62.43 116.1L129.77 116.1"/>
<g data-ph="1">
<path class="pap" stroke-width="0.7" d="M59 112 V50 C59 31.85 73.85 17 92 17 C110.15 17 125 31.85 125 50 V112 Z"/>
<path class="ln" stroke-width="0.35" d="M66 50L59 50M66.89 43.27L60.12 41.46M69.48 37L63.42 33.5M73.62 31.62L68.67 26.67M79 27.48L75.5 21.42M85.27 24.89L83.46 18.12M92 24L92 17M98.73 24.89L100.54 18.12M105 27.48L108.5 21.42M110.38 31.62L115.33 26.67M114.52 37L120.58 33.5M117.11 43.27L123.88 41.46M118 50L125 50M59 56H66 M118 56H125M59 63H66 M118 63H125M59 70H66 M118 70H125M59 77H66 M118 77H125M59 84H66 M118 84H125M59 91H66 M118 91H125M59 98H66 M118 98H125M59 105H66 M118 105H125"/>
<path class="ln" stroke-width="0.25" d="M122.71 50.1L124.89 51.92M120.38 50.1L124.89 53.88M118.11 50.16L124.89 55.84M118.11 52.12L124.89 57.8M118.11 54.07L124.89 59.75M118.11 56.03L124.89 61.71M118.11 57.99L124.89 63.67M118.11 59.95L124.89 65.63M118.11 61.91L124.89 67.59M118.11 63.86L124.89 69.55M118.11 65.82L124.89 71.5M118.11 67.78L124.89 73.46M118.11 69.74L124.89 75.42M118.11 71.7L124.89 77.38M118.11 73.65L124.89 79.34M118.11 75.61L124.89 81.29M118.11 77.57L124.89 83.25M118.11 79.53L124.89 85.21M118.11 81.49L124.89 87.17M118.11 83.45L124.89 89.13M118.11 85.4L124.89 91.08M118.11 87.36L124.89 93.04M118.11 89.32L124.89 95M118.11 91.28L124.89 96.96M118.11 93.24L124.89 98.92M118.11 95.19L124.89 100.87M118.11 97.15L124.89 102.83M118.11 99.11L124.89 104.79M118.11 101.07L124.89 106.75M118.11 103.03L124.89 108.71M118.11 104.98L124.89 110.67M118.11 106.94L124.03 111.9M118.11 108.9L121.69 111.9M118.11 110.86L119.36 111.9"/>
<path class="pap" stroke-width="0.6" d="M66 112 V50 C66 35.7 77.7 24 92 24 C106.3 24 118 35.7 118 50 V112 Z"/>
<path class="ln" stroke-width="0.26" d="M103.15 26.63L113.11 35M98.55 24.99L115.49 39.21M95.13 24.34L116.75 42.48M92.2 24.1L117.44 45.28M89.77 24.29L117.71 47.73M87.45 24.55L117.89 50.1M85.4 25.06L117.89 52.31M83.44 25.63L117.89 54.53M81.68 26.38L117.89 56.75M79.96 27.15L117.89 58.97M78.45 28.1L117.89 61.19M76.93 29.04L117.89 63.41M75.6 30.15L117.89 65.63M74.29 31.27L117.89 67.85M73.1 32.49L117.89 70.07M72 33.78L117.89 72.29M70.93 35.11L117.89 74.51M70.03 36.57L117.89 76.73M69.12 38.03L117.89 78.94M68.4 39.64L117.89 81.16M67.71 41.28L117.89 83.38M67.16 43.04L117.89 85.6M66.71 44.88L117.89 87.82M66.38 46.82L117.89 90.04M66.21 48.9L117.89 92.26M66.11 51.04L117.89 94.48M66.11 53.26L117.89 96.7M66.11 55.48L117.89 98.92M66.11 57.7L117.89 101.14M66.11 59.92L117.89 103.36M66.11 62.13L117.89 105.57M66.11 64.35L117.89 107.79M66.11 66.57L117.89 110.01M66.11 68.79L117.49 111.9M66.11 71.01L114.85 111.9M66.11 73.23L112.2 111.9M66.11 75.45L109.56 111.9M66.11 77.67L106.91 111.9M66.11 79.89L104.27 111.9M66.11 82.11L101.62 111.9M66.11 84.33L98.98 111.9M66.11 86.55L96.34 111.9M66.11 88.76L93.69 111.9M66.11 90.98L91.05 111.9M66.11 93.2L88.4 111.9M66.11 95.42L85.76 111.9M66.11 97.64L83.11 111.9M66.11 99.86L80.47 111.9M66.11 102.08L77.82 111.9M66.11 104.3L75.18 111.9M66.11 106.52L72.53 111.9M66.11 108.74L69.89 111.9M66.11 110.96L67.24 111.9"/>
<path class="ln" stroke-width="0.26" d="M69.65 36.98L83.14 25.66M67.88 40.69L87.06 24.59M66.96 43.68L90.13 24.24M66.4 46.36L92.85 24.17M66.21 48.75L95.26 24.37M66.11 51.04L97.43 24.77M66.11 53.26L99.47 25.28M66.11 55.48L101.31 25.95M66.11 57.7L103.07 26.7M66.11 59.92L104.69 27.56M66.11 62.14L106.2 28.5M66.11 64.36L107.65 29.51M66.11 66.58L108.96 30.63M66.11 68.8L110.26 31.75M66.11 71.02L111.37 33.04M66.11 73.24L112.48 34.33M66.11 75.46L113.45 35.73M66.11 77.67L114.36 37.19M66.11 79.89L115.2 38.71M66.11 82.11L115.89 40.34M66.11 84.33L116.58 41.99M66.11 86.55L117.03 43.83M66.11 88.77L117.49 45.66M66.11 90.99L117.69 47.71M66.11 93.21L117.86 49.79M66.11 95.43L117.89 51.99M66.11 97.65L117.89 54.21M66.11 99.87L117.89 56.43M66.11 102.09L117.89 58.65M66.11 104.3L117.89 60.86M66.11 106.52L117.89 63.08M66.11 108.74L117.89 65.3M66.11 110.96L117.89 67.52M67.64 111.9L117.89 69.74M70.28 111.9L117.89 71.96M72.93 111.9L117.89 74.18M75.57 111.9L117.89 76.4M78.22 111.9L117.89 78.62M80.86 111.9L117.89 80.84M83.51 111.9L117.89 83.06M86.15 111.9L117.89 85.28M88.8 111.9L117.89 87.49M91.44 111.9L117.89 89.71M94.09 111.9L117.89 91.93M96.73 111.9L117.89 94.15M99.37 111.9L117.89 96.37M102.02 111.9L117.89 98.59M104.66 111.9L117.89 100.81M107.31 111.9L117.89 103.03M109.95 111.9L117.89 105.25M112.6 111.9L117.89 107.47M115.24 111.9L117.89 109.69"/>
<path class="pg-brown" stroke-width="0.5" d="M66 58H118V60.6H66Z"/>
<path class="ln" stroke-width="0.22" d="M66.15 58.5L117.85 58.5M66.15 59.4L117.85 59.4M66.15 60.3L117.85 60.3"/>
<path class="pap" stroke-width="0.45" d="M72.7 55.6 C72.7 54.34 73.73 53.3 75 53.3 C76.27 53.3 77.3 54.34 77.3 55.6 C77.3 56.87 76.27 57.9 75 57.9 C73.73 57.9 72.7 56.87 72.7 55.6 Z"/>
<path class="pap" stroke-width="0.3" d="M74.19 55.6 C74.19 55.16 74.56 54.8 75 54.8 C75.44 54.8 75.81 55.16 75.81 55.6 C75.81 56.04 75.44 56.41 75 56.41 C74.56 56.41 74.19 56.04 74.19 55.6 Z"/>
<path class="ln" stroke-width="0.35" d="M75.8 57.8 l0.6 2.6"/>
<path class="pap" stroke-width="0.45" d="M78.3 55.6 C78.3 54.34 79.34 53.3 80.6 53.3 C81.87 53.3 82.9 54.34 82.9 55.6 C82.9 56.87 81.87 57.9 80.6 57.9 C79.34 57.9 78.3 56.87 78.3 55.6 Z"/>
<path class="pap" stroke-width="0.3" d="M79.8 55.6 C79.8 55.16 80.16 54.8 80.6 54.8 C81.04 54.8 81.41 55.16 81.41 55.6 C81.41 56.04 81.04 56.41 80.6 56.41 C80.16 56.41 79.8 56.04 79.8 55.6 Z"/>
<path class="pap" stroke-width="0.45" d="M84.2 55.9 C84.2 54.8 85.1 53.9 86.2 53.9 C87.3 53.9 88.2 54.8 88.2 55.9 C88.2 57 87.3 57.9 86.2 57.9 C85.1 57.9 84.2 57 84.2 55.9 Z"/>
<path class="pap" stroke-width="0.3" d="M85.5 55.9 C85.5 55.52 85.81 55.2 86.2 55.2 C86.59 55.2 86.9 55.52 86.9 55.9 C86.9 56.28 86.59 56.6 86.2 56.6 C85.81 56.6 85.5 56.28 85.5 55.9 Z"/>
<path class="ln" stroke-width="0.35" d="M87 57.8 l0.6 2.6"/>
<path class="pap" stroke-width="0.45" d="M89.5 55.6 C89.5 54.34 90.54 53.3 91.8 53.3 C93.07 53.3 94.1 54.34 94.1 55.6 C94.1 56.87 93.07 57.9 91.8 57.9 C90.54 57.9 89.5 56.87 89.5 55.6 Z"/>
<path class="pap" stroke-width="0.3" d="M91 55.6 C91 55.16 91.36 54.8 91.8 54.8 C92.24 54.8 92.61 55.16 92.61 55.6 C92.61 56.04 92.24 56.41 91.8 56.41 C91.36 56.41 91 56.04 91 55.6 Z"/>
<path class="pap" stroke-width="0.45" d="M95.1 55.6 C95.1 54.34 96.14 53.3 97.4 53.3 C98.67 53.3 99.7 54.34 99.7 55.6 C99.7 56.87 98.67 57.9 97.4 57.9 C96.14 57.9 95.1 56.87 95.1 55.6 Z"/>
<path class="pap" stroke-width="0.3" d="M96.59 55.6 C96.59 55.16 96.96 54.8 97.4 54.8 C97.84 54.8 98.21 55.16 98.21 55.6 C98.21 56.04 97.84 56.41 97.4 56.41 C96.96 56.41 96.59 56.04 96.59 55.6 Z"/>
<path class="ln" stroke-width="0.35" d="M98.2 57.8 l0.6 2.6"/>
<path class="pap" stroke-width="0.45" d="M101 55.9 C101 54.8 101.9 53.9 103 53.9 C104.1 53.9 105 54.8 105 55.9 C105 57 104.1 57.9 103 57.9 C101.9 57.9 101 57 101 55.9 Z"/>
<path class="pap" stroke-width="0.3" d="M102.3 55.9 C102.3 55.52 102.61 55.2 103 55.2 C103.39 55.2 103.7 55.52 103.7 55.9 C103.7 56.28 103.39 56.6 103 56.6 C102.61 56.6 102.3 56.28 102.3 55.9 Z"/>
<path class="pap" stroke-width="0.45" d="M106.3 55.6 C106.3 54.34 107.33 53.3 108.6 53.3 C109.86 53.3 110.9 54.34 110.9 55.6 C110.9 56.87 109.86 57.9 108.6 57.9 C107.33 57.9 106.3 56.87 106.3 55.6 Z"/>
<path class="pap" stroke-width="0.3" d="M107.79 55.6 C107.79 55.16 108.16 54.8 108.6 54.8 C109.04 54.8 109.41 55.16 109.41 55.6 C109.41 56.04 109.04 56.41 108.6 56.41 C108.16 56.41 107.79 56.04 107.79 55.6 Z"/>
<path class="ln" stroke-width="0.35" d="M109.4 57.8 l0.6 2.6"/>
<path class="pg-brown" stroke-width="0.5" d="M66 76H118V78.6H66Z"/>
<path class="ln" stroke-width="0.22" d="M66.15 76.5L117.85 76.5M66.15 77.4L117.85 77.4M66.15 78.3L117.85 78.3"/>
<path class="pap" stroke-width="0.45" d="M67.4 73.9 C67.4 72.8 68.3 71.9 69.4 71.9 C70.5 71.9 71.4 72.8 71.4 73.9 C71.4 75 70.5 75.9 69.4 75.9 C68.3 75.9 67.4 75 67.4 73.9 Z"/>
<path class="pap" stroke-width="0.3" d="M68.7 73.9 C68.7 73.52 69.02 73.2 69.4 73.2 C69.79 73.2 70.1 73.52 70.1 73.9 C70.1 74.29 69.79 74.6 69.4 74.6 C69.02 74.6 68.7 74.29 68.7 73.9 Z"/>
<path class="pap" stroke-width="0.45" d="M72.7 73.6 C72.7 72.34 73.73 71.3 75 71.3 C76.27 71.3 77.3 72.34 77.3 73.6 C77.3 74.87 76.27 75.9 75 75.9 C73.73 75.9 72.7 74.87 72.7 73.6 Z"/>
<path class="pap" stroke-width="0.3" d="M74.19 73.6 C74.19 73.16 74.56 72.8 75 72.8 C75.44 72.8 75.81 73.16 75.81 73.6 C75.81 74.04 75.44 74.41 75 74.41 C74.56 74.41 74.19 74.04 74.19 73.6 Z"/>
<path class="ln" stroke-width="0.35" d="M75.8 75.8 l0.6 2.6"/>
<path class="pap" stroke-width="0.45" d="M78.3 73.6 C78.3 72.34 79.34 71.3 80.6 71.3 C81.87 71.3 82.9 72.34 82.9 73.6 C82.9 74.87 81.87 75.9 80.6 75.9 C79.34 75.9 78.3 74.87 78.3 73.6 Z"/>
<path class="pap" stroke-width="0.3" d="M79.8 73.6 C79.8 73.16 80.16 72.8 80.6 72.8 C81.04 72.8 81.41 73.16 81.41 73.6 C81.41 74.04 81.04 74.41 80.6 74.41 C80.16 74.41 79.8 74.04 79.8 73.6 Z"/>
<path class="pap" stroke-width="0.45" d="M84.2 73.9 C84.2 72.8 85.1 71.9 86.2 71.9 C87.3 71.9 88.2 72.8 88.2 73.9 C88.2 75 87.3 75.9 86.2 75.9 C85.1 75.9 84.2 75 84.2 73.9 Z"/>
<path class="pap" stroke-width="0.3" d="M85.5 73.9 C85.5 73.52 85.81 73.2 86.2 73.2 C86.59 73.2 86.9 73.52 86.9 73.9 C86.9 74.29 86.59 74.6 86.2 74.6 C85.81 74.6 85.5 74.29 85.5 73.9 Z"/>
<path class="ln" stroke-width="0.35" d="M87 75.8 l0.6 2.6"/>
<path class="pap" stroke-width="0.45" d="M89.5 73.6 C89.5 72.34 90.54 71.3 91.8 71.3 C93.07 71.3 94.1 72.34 94.1 73.6 C94.1 74.87 93.07 75.9 91.8 75.9 C90.54 75.9 89.5 74.87 89.5 73.6 Z"/>
<path class="pap" stroke-width="0.3" d="M91 73.6 C91 73.16 91.36 72.8 91.8 72.8 C92.24 72.8 92.61 73.16 92.61 73.6 C92.61 74.04 92.24 74.41 91.8 74.41 C91.36 74.41 91 74.04 91 73.6 Z"/>
<path class="pap" stroke-width="0.45" d="M95.1 73.6 C95.1 72.34 96.14 71.3 97.4 71.3 C98.67 71.3 99.7 72.34 99.7 73.6 C99.7 74.87 98.67 75.9 97.4 75.9 C96.14 75.9 95.1 74.87 95.1 73.6 Z"/>
<path class="pap" stroke-width="0.3" d="M96.59 73.6 C96.59 73.16 96.96 72.8 97.4 72.8 C97.84 72.8 98.21 73.16 98.21 73.6 C98.21 74.04 97.84 74.41 97.4 74.41 C96.96 74.41 96.59 74.04 96.59 73.6 Z"/>
<path class="ln" stroke-width="0.35" d="M98.2 75.8 l0.6 2.6"/>
<path class="pap" stroke-width="0.45" d="M101 73.9 C101 72.8 101.9 71.9 103 71.9 C104.1 71.9 105 72.8 105 73.9 C105 75 104.1 75.9 103 75.9 C101.9 75.9 101 75 101 73.9 Z"/>
<path class="pap" stroke-width="0.3" d="M102.3 73.9 C102.3 73.52 102.61 73.2 103 73.2 C103.39 73.2 103.7 73.52 103.7 73.9 C103.7 74.29 103.39 74.6 103 74.6 C102.61 74.6 102.3 74.29 102.3 73.9 Z"/>
<path class="pap" stroke-width="0.45" d="M106.3 73.6 C106.3 72.34 107.33 71.3 108.6 71.3 C109.86 71.3 110.9 72.34 110.9 73.6 C110.9 74.87 109.86 75.9 108.6 75.9 C107.33 75.9 106.3 74.87 106.3 73.6 Z"/>
<path class="pap" stroke-width="0.3" d="M107.79 73.6 C107.79 73.16 108.16 72.8 108.6 72.8 C109.04 72.8 109.41 73.16 109.41 73.6 C109.41 74.04 109.04 74.41 108.6 74.41 C108.16 74.41 107.79 74.04 107.79 73.6 Z"/>
<path class="ln" stroke-width="0.35" d="M109.4 75.8 l0.6 2.6"/>
<path class="pap" stroke-width="0.45" d="M111.9 73.6 C111.9 72.34 112.94 71.3 114.2 71.3 C115.47 71.3 116.5 72.34 116.5 73.6 C116.5 74.87 115.47 75.9 114.2 75.9 C112.94 75.9 111.9 74.87 111.9 73.6 Z"/>
<path class="pap" stroke-width="0.3" d="M113.39 73.6 C113.39 73.16 113.76 72.8 114.2 72.8 C114.64 72.8 115.01 73.16 115.01 73.6 C115.01 74.04 114.64 74.41 114.2 74.41 C113.76 74.41 113.39 74.04 113.39 73.6 Z"/>
<path class="pg-brown" stroke-width="0.5" d="M66 94H118V96.6H66Z"/>
<path class="ln" stroke-width="0.22" d="M66.15 94.5L117.85 94.5M66.15 95.4L117.85 95.4M66.15 96.3L117.85 96.3"/>
<path class="pap" stroke-width="0.45" d="M67.4 91.9 C67.4 90.8 68.3 89.9 69.4 89.9 C70.5 89.9 71.4 90.8 71.4 91.9 C71.4 93 70.5 93.9 69.4 93.9 C68.3 93.9 67.4 93 67.4 91.9 Z"/>
<path class="pap" stroke-width="0.3" d="M68.7 91.9 C68.7 91.52 69.02 91.2 69.4 91.2 C69.79 91.2 70.1 91.52 70.1 91.9 C70.1 92.29 69.79 92.6 69.4 92.6 C69.02 92.6 68.7 92.29 68.7 91.9 Z"/>
<path class="pap" stroke-width="0.45" d="M72.7 91.6 C72.7 90.34 73.73 89.3 75 89.3 C76.27 89.3 77.3 90.34 77.3 91.6 C77.3 92.87 76.27 93.9 75 93.9 C73.73 93.9 72.7 92.87 72.7 91.6 Z"/>
<path class="pap" stroke-width="0.3" d="M74.19 91.6 C74.19 91.16 74.56 90.8 75 90.8 C75.44 90.8 75.81 91.16 75.81 91.6 C75.81 92.04 75.44 92.41 75 92.41 C74.56 92.41 74.19 92.04 74.19 91.6 Z"/>
<path class="ln" stroke-width="0.35" d="M75.8 93.8 l0.6 2.6"/>
<path class="pap" stroke-width="0.45" d="M78.3 91.6 C78.3 90.34 79.34 89.3 80.6 89.3 C81.87 89.3 82.9 90.34 82.9 91.6 C82.9 92.87 81.87 93.9 80.6 93.9 C79.34 93.9 78.3 92.87 78.3 91.6 Z"/>
<path class="pap" stroke-width="0.3" d="M79.8 91.6 C79.8 91.16 80.16 90.8 80.6 90.8 C81.04 90.8 81.41 91.16 81.41 91.6 C81.41 92.04 81.04 92.41 80.6 92.41 C80.16 92.41 79.8 92.04 79.8 91.6 Z"/>
<path class="pap" stroke-width="0.45" d="M84.2 91.9 C84.2 90.8 85.1 89.9 86.2 89.9 C87.3 89.9 88.2 90.8 88.2 91.9 C88.2 93 87.3 93.9 86.2 93.9 C85.1 93.9 84.2 93 84.2 91.9 Z"/>
<path class="pap" stroke-width="0.3" d="M85.5 91.9 C85.5 91.52 85.81 91.2 86.2 91.2 C86.59 91.2 86.9 91.52 86.9 91.9 C86.9 92.29 86.59 92.6 86.2 92.6 C85.81 92.6 85.5 92.29 85.5 91.9 Z"/>
<path class="ln" stroke-width="0.35" d="M87 93.8 l0.6 2.6"/>
<path class="pap" stroke-width="0.45" d="M89.5 91.6 C89.5 90.34 90.54 89.3 91.8 89.3 C93.07 89.3 94.1 90.34 94.1 91.6 C94.1 92.87 93.07 93.9 91.8 93.9 C90.54 93.9 89.5 92.87 89.5 91.6 Z"/>
<path class="pap" stroke-width="0.3" d="M91 91.6 C91 91.16 91.36 90.8 91.8 90.8 C92.24 90.8 92.61 91.16 92.61 91.6 C92.61 92.04 92.24 92.41 91.8 92.41 C91.36 92.41 91 92.04 91 91.6 Z"/>
<path class="pap" stroke-width="0.45" d="M95.1 91.6 C95.1 90.34 96.14 89.3 97.4 89.3 C98.67 89.3 99.7 90.34 99.7 91.6 C99.7 92.87 98.67 93.9 97.4 93.9 C96.14 93.9 95.1 92.87 95.1 91.6 Z"/>
<path class="pap" stroke-width="0.3" d="M96.59 91.6 C96.59 91.16 96.96 90.8 97.4 90.8 C97.84 90.8 98.21 91.16 98.21 91.6 C98.21 92.04 97.84 92.41 97.4 92.41 C96.96 92.41 96.59 92.04 96.59 91.6 Z"/>
<path class="ln" stroke-width="0.35" d="M98.2 93.8 l0.6 2.6"/>
<path class="pap" stroke-width="0.45" d="M101 91.9 C101 90.8 101.9 89.9 103 89.9 C104.1 89.9 105 90.8 105 91.9 C105 93 104.1 93.9 103 93.9 C101.9 93.9 101 93 101 91.9 Z"/>
<path class="pap" stroke-width="0.3" d="M102.3 91.9 C102.3 91.52 102.61 91.2 103 91.2 C103.39 91.2 103.7 91.52 103.7 91.9 C103.7 92.29 103.39 92.6 103 92.6 C102.61 92.6 102.3 92.29 102.3 91.9 Z"/>
<path class="pap" stroke-width="0.45" d="M106.3 91.6 C106.3 90.34 107.33 89.3 108.6 89.3 C109.86 89.3 110.9 90.34 110.9 91.6 C110.9 92.87 109.86 93.9 108.6 93.9 C107.33 93.9 106.3 92.87 106.3 91.6 Z"/>
<path class="pap" stroke-width="0.3" d="M107.79 91.6 C107.79 91.16 108.16 90.8 108.6 90.8 C109.04 90.8 109.41 91.16 109.41 91.6 C109.41 92.04 109.04 92.41 108.6 92.41 C108.16 92.41 107.79 92.04 107.79 91.6 Z"/>
<path class="ln" stroke-width="0.35" d="M109.4 93.8 l0.6 2.6"/>
<path class="pap" stroke-width="0.45" d="M111.9 91.6 C111.9 90.34 112.94 89.3 114.2 89.3 C115.47 89.3 116.5 90.34 116.5 91.6 C116.5 92.87 115.47 93.9 114.2 93.9 C112.94 93.9 111.9 92.87 111.9 91.6 Z"/>
<path class="pap" stroke-width="0.3" d="M113.39 91.6 C113.39 91.16 113.76 90.8 114.2 90.8 C114.64 90.8 115.01 91.16 115.01 91.6 C115.01 92.04 114.64 92.41 114.2 92.41 C113.76 92.41 113.39 92.04 113.39 91.6 Z"/>
</g>
<g data-ph="2">
<path class="pap" stroke-width="0.7" d="M71 33.8L64 33.8L66.6 37.8L64 42.2L71 42.2Z"/>
<path class="ln" stroke-width="0.25" d="M68.71 33.9L70.89 35.72M66.53 33.9L70.89 37.55M64.35 33.9L70.89 39.38M66.44 37.47L70.89 41.2M66.07 38.99L69.78 42.1M65.35 40.21L67.6 42.1M64.62 41.43L65.42 42.1"/>
<path class="pap" stroke-width="0.7" d="M113 33.8L120 33.8L117.4 37.8L120 42.2L113 42.2Z"/>
<path class="ln" stroke-width="0.25" d="M118.8 33.9L119.42 34.41M116.63 33.9L118.65 35.6M114.45 33.9L117.89 36.78M113.11 34.6L117.75 38.5M113.11 36.43L119.87 42.1M113.11 38.26L117.7 42.1M113.11 40.09L115.52 42.1M113.11 41.92L113.34 42.1"/>
<path class="pap" stroke-width="0.8" d="M69 31.8H115V40.2H69Z"/>
<path class="ln" stroke-width="0.25" d="M70.2 33H113.8"/>
<text class="rub" x="92" y="38.3" font-size="6.4" text-anchor="middle">ОРИГИНАЛ</text>
</g>
<g transform="translate(-136 0)">
<path class="ln" stroke-width="0.35" d="M159 40 L169 32 L179 40"/>
<path class="ink" stroke-width="0.2" d="M168.4 32 a0.6 0.6 0 1 0 1.2 0 a0.6 0.6 0 1 0 -1.2 0 Z"/>
<path class="pap" stroke-width="0.8" d="M152 40H186V67H152Z"/>
<path class="ln" stroke-width="0.3" d="M153.3 41.3H184.7V65.7H153.3Z"/>
<text class="rub" x="169" y="46.6" font-size="5.2" text-anchor="middle">ЧЁРНЫЙ</text>
<text class="rub" x="169" y="52.2" font-size="5.2" text-anchor="middle">СПИСОК</text>
<path class="ln" stroke-width="0.4" d="M156 56 H171 M156 59 H168 M156 62 H172"/>
<path class="ln" stroke-width="0.5" d="M155 58.8 L173 55.6"/>
<path class="pap" stroke-width="0.6" d="M175.6 59.5 C175.6 57.63 177.13 56.1 179 56.1 C180.87 56.1 182.4 57.63 182.4 59.5 C182.4 61.37 180.87 62.9 179 62.9 C177.13 62.9 175.6 61.37 175.6 59.5 Z"/>
<path class="ln" stroke-width="0.7" d="M176.6 57.1 L181.4 61.9 M181.4 57.1 L176.6 61.9"/>
</g>
<g data-ph="2">
<path class="ln" stroke-width="0.6" d="M150 96 V124 M204 96 V124 M152 112 H202"/>
<path class="ln" stroke-width="0.24" d="M202.27 96.1L203.89 97.45M200.4 96.1L203.74 98.9M198.53 96.1L201.88 98.9M196.67 96.1L200.01 98.9M194.8 96.1L198.14 98.9M192.93 96.1L196.28 98.9M191.06 96.1L194.41 98.9M189.2 96.1L192.54 98.9M187.33 96.1L190.68 98.9M185.46 96.1L188.81 98.9M183.6 96.1L186.94 98.9M181.73 96.1L185.08 98.9M179.86 96.1L183.21 98.9M178 96.1L181.34 98.9M176.13 96.1L179.48 98.9M174.26 96.1L177.61 98.9M172.4 96.1L175.74 98.9M170.53 96.1L173.87 98.9M168.66 96.1L172.01 98.9M166.8 96.1L170.14 98.9M164.93 96.1L168.27 98.9M163.06 96.1L166.41 98.9M161.19 96.1L164.54 98.9M159.33 96.1L162.67 98.9M157.46 96.1L160.81 98.9M155.59 96.1L158.94 98.9M153.73 96.1L157.07 98.9M151.86 96.1L155.21 98.9M150.11 96.2L153.34 98.9M150.11 97.76L151.47 98.9"/>
<path class="pap" stroke-width="0.6" d="M150 92 H204 L208 96 H146 Z"/>
<path class="ln" stroke-width="0.22" d="M150.15 92L203.85 92M148.15 94L205.85 94"/>
<path class="pap" stroke-width="0.45" d="M156 84 L170.85 81.91 L172.11 90.82 L157.25 92.91 Z"/>
<path class="ln" stroke-width="0.28" d="M158.29 85.9L169.18 84.37M158.57 87.88L169.46 86.35M158.84 89.86L169.74 88.33"/>
<path class="pap" stroke-width="0.45" d="M162 81 L176.92 82.57 L175.98 91.52 L161.06 89.95 Z"/>
<path class="ln" stroke-width="0.28" d="M163.76 83.4L174.7 84.55M163.55 85.39L174.49 86.54M163.34 87.38L174.28 88.52"/>
<path class="pap" stroke-width="0.45" d="M170 83 L184.98 82.21 L185.45 91.2 L170.47 91.99 Z"/>
<path class="ln" stroke-width="0.28" d="M172.11 85.09L183.1 84.52M172.22 87.09L183.2 86.51M172.32 89.09L183.31 88.51"/>
<path class="pap" stroke-width="0.45" d="M176 79 L190.82 81.35 L189.41 90.24 L174.59 87.89 Z"/>
<path class="ln" stroke-width="0.28" d="M177.63 81.49L188.5 83.21M177.32 83.46L188.18 85.18M177.01 85.44L187.87 87.16"/>
<path class="pap" stroke-width="0.45" d="M164 76 L178.67 72.88 L180.54 81.68 L165.87 84.8 Z"/>
<path class="ln" stroke-width="0.28" d="M166.41 77.74L177.17 75.45M166.83 79.69L177.59 77.41M167.25 81.65L178 79.36"/>
<path class="pap" stroke-width="0.45" d="M186 84 L200.96 85.05 L200.34 94.02 L185.37 92.98 Z"/>
<path class="ln" stroke-width="0.28" d="M187.84 86.33L198.81 87.1M187.7 88.33L198.68 89.1M187.56 90.32L198.54 91.09"/>
<path class="pap" stroke-width="0.45" d="M180 74 L194.92 72.43 L195.86 81.38 L180.94 82.95 Z"/>
<path class="ln" stroke-width="0.28" d="M182.22 75.98L193.16 74.83M182.43 77.97L193.37 76.82M182.64 79.96L193.58 78.81"/>
<path class="ink" stroke-width="0.2" d="M165 80 C163 78 166 76 168 77 C170 75 173 77 172 79 C175 80 173 83 171 82 C170 85 166 84 166 82 C163 83 163 81 165 80 Z"/>
<path class="ink" stroke-width="0.2" d="M180 79 C179 77 182 76 183 77 C185 76 186 78 185 80 C186 82 183 83 182 82 C180 83 178 81 180 79 Z"/>
<path class="ink" stroke-width="0.2" d="M190 88 C189 86 192 85 193 87 C195 86 196 89 194 90 C195 92 192 92 191 91 C189 92 188 89 190 88 Z"/>
<path class="ink" stroke-width="0.2" d="M158 91 C157 89 160 88 161 90 C163 89 164 91 162 92 L161 92 Z"/>
</g>
<path class="ln" stroke-width="0.5" d="M170 62 V76"/>
<g data-ph="2">
<path class="pap" stroke-width="0.7" d="M152 57L145 57L147.6 60.8L145 65L152 65Z"/>
<path class="ln" stroke-width="0.25" d="M150.81 57.1L151.89 58M148.63 57.1L151.89 59.83M146.45 57.1L151.89 61.65M146.25 58.75L151.89 63.48M147.34 61.5L151.4 64.9M146.6 62.7L149.22 64.9M145.85 63.9L147.05 64.9"/>
<path class="pap" stroke-width="0.7" d="M188 57L195 57L192.4 60.8L195 65L188 65Z"/>
<path class="ln" stroke-width="0.25" d="M194.37 57.1L194.61 57.3M192.19 57.1L193.82 58.46M190.01 57.1L193.02 59.62M188.11 57.33L192.45 60.97M188.11 59.16L194.8 64.77M188.11 60.99L192.78 64.9M188.11 62.81L190.61 64.9M188.11 64.64L188.43 64.9"/>
<path class="pap" stroke-width="0.8" d="M150 55H190V63H150Z"/>
<path class="ln" stroke-width="0.25" d="M151.2 56.2H188.8"/>
<text class="rub" x="170" y="61.16" font-size="6.0" text-anchor="middle">ПЕРЕСКАЗ</text>
</g>
<path class="ln" stroke-width="0.25" d="M132.34 128L139.66 128M121.25 128.8L150.75 128.8M119.15 129.6L152.85 129.6M121.25 130.4L150.75 130.4M132.34 131.2L139.66 131.2"/>
<path class="ln" stroke-width="0.25" d="M165.76 123.2L188.24 123.2M151.32 124L202.68 124M147.63 124.8L206.37 124.8M148.59 125.6L205.41 125.6M156.01 126.4L197.99 126.4"/>
<g data-ph="2">
<g>
<path class="pg-skin" stroke-width="0.5" d="M132.23 88.72 C132.1 87.05 131.39 86.47 130.18 86.96 C128.98 87.44 128.86 88.35 129.91 89.65 Z"/>
<path class="ln" stroke-width="0.3" d="M129.93 87.81L129.71 87.25M130.49 87.59L130.27 87.03M131 87.38L130.78 86.83M131.85 87.9Q132.56 86.98 131.59 86.18"/>
<path class="pg-red" stroke-width="0.55" d="M138.24 81.69 Q134.94 96.39 133.68 87.93 L128.32 90.07 Q135.06 101.61 143.12 83.37 Z"/>
<path class="ln" stroke-width="0.26" d="M138.11 82.47L139.97 84.03M137.54 84.08L139.38 85.62M136.96 85.68L138.71 87.15M136.37 87.27L138 88.64M135.74 88.83L137.21 90.07M132.77 88.43L133.46 89.01M135.06 90.35L136.28 91.38M131.14 89.16L133.42 91.07M134.21 91.73L135.01 92.4"/>
<path class="ln" stroke-width="0.4" d="M134.28 89.41Q131.41 90.02 128.91 91.56"/>
<path class="ln" stroke-width="0.3" d="M134.86 94.34Q134.62 98.87 135.43 96.74"/>
</g>
<g>
<path class="ink" stroke-width="0.2" d="M134.9 129.62 C133.87 127.76 129.12 128.07 128.5 130.14 L134.9 130.45 Z"/>
<path class="ink" stroke-width="0.2" d="M144.19 129.62 C143.16 127.97 139.03 128.07 138.62 130.34 L144.19 130.55 Z"/>
<path class="pg-red" stroke-width="0.65" d="M143.78 80.07 C146.46 81.1 147.19 84.61 146.88 88.74 L147.5 101.13 C148.94 111.45 150.59 121.77 151.21 129 Q138 131.06 124.79 129 C125.41 121.77 126.85 111.45 128.3 101.13 L129.12 88.74 C128.81 84.61 129.54 81.1 132.22 80.07 Q138 77.8 143.78 80.07 Z"/>
<path class="ln" stroke-width="0.3" d="M143.86 80.18L145.68 81.71M142.66 80.94L146.6 84.24M142.76 82.78L146.81 86.18M142.85 84.62L146.8 87.93M142.94 86.46L146.82 89.71M143.03 88.3L146.91 91.55M143.13 90.14L147 93.39M143.22 91.98L147.09 95.23M143.31 93.82L147.19 97.07M143.4 95.66L147.28 98.91M143.5 97.5L147.37 100.75M143.59 99.34L147.62 102.72M143.68 101.18L147.91 104.72M143.72 102.97L148.2 106.73M143.74 104.75L148.49 108.73M143.76 106.53L148.78 110.74M143.77 108.3L149.07 112.75M143.77 110.06L149.35 114.75M143.77 111.82L149.63 116.75M143.76 113.58L149.91 118.74M143.74 115.33L150.17 120.72M143.72 117.07L150.42 122.69M143.7 118.82L150.66 124.65M143.67 120.56L150.87 126.6M143.65 122.3L151.06 128.52M143.62 124.03L149.84 129.26M143.58 125.77L148.24 129.68M143.55 127.5L146.59 130.05M143.52 129.24L144.86 130.37"/>
<path class="ln" stroke-width="0.22" d="M126.44 118.44L127.8 117.3M125.85 121.54L131.87 116.49M125.4 124.53L134.81 116.63M125.03 127.45L135.24 118.88M126.14 129.13L134.92 121.76M128.7 129.59L134.52 124.71M131.26 130.06L134.12 127.65"/>
<path class="ln" stroke-width="0.24" d="M125.06 127.17L125.39 126.89M125.13 128.93L127.31 127.1M126.99 129.2L129.27 127.28M128.9 129.42L131.28 127.43M130.85 129.61L133.32 127.54M132.84 129.77L135.41 127.62M134.91 129.87L137.55 127.65M137.03 129.92L139.75 127.63M139.2 129.92L142.01 127.56M141.45 129.86L144.33 127.44M143.77 129.74L146.72 127.26M146.18 129.55L149.19 127.02M148.68 129.27L150.94 127.38"/>
<path class="ln" stroke-width="0.35" d="M142.34 101.54 C143.78 111.45 145.45 120.74 145.85 130.03M138.62 101.95 C138.93 111.45 139.18 120.74 139.24 130.03M134.49 101.75 C133.25 111.45 132.12 120.74 131.81 130.03M131.19 101.34 C129.12 111.45 127.8 120.74 127.26 129.41M140.27 80.9 C140.89 87.71 141.3 93.9 141.72 99.68M135.32 80.48 C134.9 87.71 134.28 93.9 134.08 99.68"/>
<path class="ln" stroke-width="0.45" d="M141.51 79.04 Q138.41 83.37 136.76 85.03 Q135.52 82.75 133.87 79.14"/>
<path class="ln" stroke-width="0.75" d="M147.6 99.48 Q138 101.75 128.19 99.48"/>
<path class="ln" stroke-width="0.35" d="M147.6 100.72 Q138 102.99 128.19 100.72"/>
<path class="ln" stroke-width="0.4" d="M136.76 101.95 C136.35 106.29 136.97 109.39 136.55 113.52 M135.73 101.95 C135.11 106.29 135.32 109.39 134.7 112.48"/>
</g>
<path class="ln" stroke-width="0.45" d="M139.28 77.1L139.06 80.51 M135.98 77.53L136.09 80.29"/>
<path class="pg-skin" stroke-width="0.55" d="M137.79 66.9 C135.02 67 133.53 68.81 133.43 70.94 C133.32 71.68 132.58 72.96 132.15 73.81 L133.32 74.34 L133.22 75.19 C133 75.72 133.32 76.36 133.53 76.79 C133.64 77.74 134.17 78.49 135.66 78.59 C137.36 78.7 139.7 77.32 141.61 74.98 C143.1 72.96 142.57 67.75 137.79 66.9 Z"/>
<path class="ln" stroke-width="0.24" d="M141.44 69.47L142.21 70.12M140.8 70.63L142.45 72.01M140.36 71.96L142.19 73.49M140.26 73.57L141.61 74.7"/>
<path class="ln" stroke-width="0.35" d="M139.49 72 C140.76 71.36 140.98 74.13 139.38 74.34"/>
<path class="ln" stroke-width="0.4" d="M136.3 69.87 Q135.24 69.24 134.07 69.77"/>
<path class="ln" stroke-width="0.42" d="M135.87 71.47 Q135.13 70.83 134.39 71.47"/>
<path class="ln" stroke-width="0.35" d="M134.81 75.93 L133.64 75.93"/>
<path class="ln" stroke-width="0.3" d="M133.11 73.7 Q133.75 74.02 133.96 73.49"/>
<path class="ink" stroke-width="0.2" d="M140.98 74.55 C139.59 78.17 137.47 81.68 135.24 81.36 C133.75 80.93 133.32 78.38 133.75 76.68 C135.34 77.85 138 77.53 140.98 74.55 Z"/>
<path class="ink" stroke-width="0.25" d="M142.89 73.91 C144.17 68.39 141.19 65.41 137.36 66.05 C134.6 66.26 133.11 67.75 133.32 69.24 C135.66 67.96 138 68.39 139.49 69.87 C140.55 71.15 141.19 73.28 142.89 73.91 Z"/>
<g>
<path class="pg-skin" stroke-width="0.5" d="M117.03 68.26 C116.25 66.77 114.73 65.89 113.81 66.81 C112.89 67.73 113.77 69.25 115.26 70.03 Z"/>
<path class="ln" stroke-width="0.3" d="M114.55 68.33L113.7 67.48M114.97 67.9L114.13 67.06M115.36 67.52L114.52 66.67M116.35 67.66Q116.64 66.53 115.43 66.17"/>
<path class="pg-red" stroke-width="0.55" d="M133.59 79.95 Q125.63 74.96 118.04 66.96 L113.96 71.04 Q122.37 79.04 130.85 84.32 Z"/>
<path class="ln" stroke-width="0.26" d="M115.47 69.74L131.42 83.13M114.34 70.88L128.57 82.82"/>
<path class="ln" stroke-width="0.4" d="M119.18 68.09Q116.78 69.78 115.09 72.18"/>
<path class="ln" stroke-width="0.3" d="M126.93 76.88Q124.21 76.66 123.44 74.68"/>
</g>
</g>
<g data-ph="2" transform="translate(10 0)">
<path class="pap" stroke-width="0.6" d="M94 68 C94 66.4 95.2 65.6 96.6 65.6 L108 66.6 C109.6 66.8 110.4 68 110.4 69.4 C110.4 70.8 109.4 71.8 108 71.6 L96.6 70.6 C95 70.4 94 69.4 94 68 Z"/>
<path class="ln" stroke-width="0.4" d="M96.6 65.6 C97.8 66 98 67.2 98 68.2 C98 69.4 97.4 70.4 96.6 70.6"/>
<path class="ln" stroke-width="0.28" d="M100 67.4 H106 M100 69.4 H105"/>
<path class="ln" stroke-width="0.4" d="M103 71.4 L102.4 75"/>
<path class="pg-gold" stroke-width="1.0" d="M98.6 78.2 C98.6 76.22 100.22 74.6 102.2 74.6 C104.18 74.6 105.8 76.22 105.8 78.2 C105.8 80.18 104.18 81.8 102.2 81.8 C100.22 81.8 98.6 80.18 98.6 78.2 Z"/>
<path class="ln" stroke-width="0.45" d="M100.4 78.2 H104 M102.2 76.4 V80"/>
</g>
<path class="pg-skin" stroke-width="0.5" d="M117 68.25 C116.44 66.67 115.6 66.3 114.56 67.08 C113.52 67.86 113.64 68.77 115 69.75 Z"/>
<path class="ln" stroke-width="0.3" d="M114.54 67.97L114.18 67.49M115.02 67.61L114.66 67.13M115.46 67.28L115.1 66.8M116.42 67.56Q116.86 66.48 115.72 65.96"/>
</g>
</svg>
