<svg xmlns="http://www.w3.org/2000/svg" viewBox="0 0 240 160">
<!-- s20: гравюра тушью, штриховка посчитана по контурам, бумажные плоскости pap -->
<path class="ln" stroke-width="0.2" d="M6 8H234M6 10.8H234M6 13.6H234M6 16.4H234M6 19.2H234M6 22H234M6 24.8H234M6 27.6H234M6 30.4H234M6 33.2H234M6 36H234M6 38.8H234M6 41.6H234M6 44.4H234"/>
<path class="ln" stroke-width="0.3" d="M6 50.4H46M6 55.8H46M6 61.2H46M6 66.6H46M6 72H46M6 77.4H46M6 82.8H46M6 88.2H46M6 93.6H46M6 99H46M6 102.6H46"/>
<path class="ln" stroke-width="0.3" d="M17 45V50.4M28 45V50.4M39 45V50.4M11.5 50.4V55.8M22.5 50.4V55.8M33.5 50.4V55.8M44.5 50.4V55.8M17 55.8V61.2M28 55.8V61.2M39 55.8V61.2M11.5 61.2V66.6M22.5 61.2V66.6M33.5 61.2V66.6M44.5 61.2V66.6M17 66.6V72M28 66.6V72M39 66.6V72M11.5 72V77.4M22.5 72V77.4M33.5 72V77.4M44.5 72V77.4M17 77.4V82.8M28 77.4V82.8M39 77.4V82.8M11.5 82.8V88.2M22.5 82.8V88.2M33.5 82.8V88.2M44.5 82.8V88.2M17 88.2V93.6M28 88.2V93.6M39 88.2V93.6M11.5 93.6V99M22.5 93.6V99M33.5 93.6V99M44.5 93.6V99M17 99V102.6M28 99V102.6M39 99V102.6"/>
<path class="ln" stroke-width="0.27" d="M27.5 87.3q1 0.8 2.2 0.3"/>
<path class="ln" stroke-width="0.3" d="M194 50.4H234M194 55.8H234M194 61.2H234M194 66.6H234M194 72H234M194 77.4H234M194 82.8H234M194 88.2H234M194 93.6H234M194 99H234M194 102.6H234"/>
<path class="ln" stroke-width="0.3" d="M205 45V50.4M216 45V50.4M227 45V50.4M199.5 50.4V55.8M210.5 50.4V55.8M221.5 50.4V55.8M232.5 50.4V55.8M205 55.8V61.2M216 55.8V61.2M227 55.8V61.2M199.5 61.2V66.6M210.5 61.2V66.6M221.5 61.2V66.6M232.5 61.2V66.6M205 66.6V72M216 66.6V72M227 66.6V72M199.5 72V77.4M210.5 72V77.4M221.5 72V77.4M232.5 72V77.4M205 77.4V82.8M216 77.4V82.8M227 77.4V82.8M199.5 82.8V88.2M210.5 82.8V88.2M221.5 82.8V88.2M232.5 82.8V88.2M205 88.2V93.6M216 88.2V93.6M227 88.2V93.6M199.5 93.6V99M210.5 93.6V99M221.5 93.6V99M232.5 93.6V99M205 99V102.6M216 99V102.6M227 99V102.6"/>
<path class="ln" stroke-width="0.27" d="M200 49.5q1 0.8 2.2 0.3M226.5 65.7q1 0.8 2.2 0.3M226.5 76.5q1 0.8 2.2 0.3"/>
<path class="ln" stroke-width="0.3" d="M45.2 105.6L-34 156M55.89 105.6L-12 156M66.57 105.6L10 156M77.26 105.6L32 156M87.94 105.6L54 156M98.63 105.6L76 156M109.31 105.6L98 156M120 105.6L120 156M130.69 105.6L142 156M141.37 105.6L164 156M152.06 105.6L186 156M162.74 105.6L208 156M173.43 105.6L230 156M184.11 105.6L252 156M194.8 105.6L274 156M6 112.66H234M6 122.74H234M6 135.84H234M6 150.96H234"/>
<path class="ln" stroke-width="0.2" d="M51.63 105.99L52.93 107.07M48.52 105.99L51.28 108.3M45.52 106.08L49.63 109.52M43.75 107.2L47.98 110.75M41.98 108.33L46.32 111.97M40.21 109.45L43.57 112.27M38.44 110.58L40.46 112.27M36.67 111.71L37.35 112.27"/>
<path class="ln" stroke-width="0.2" d="M28.5 123.13L29.81 124.23M25.39 123.13L28.16 125.45M22.28 123.13L26.51 126.68M19.17 123.13L24.86 127.9M17.55 124.38L23.21 129.13M16.18 125.84L21.56 130.36M14.81 127.31L19.91 131.58M13.44 128.77L18.26 132.81M12.08 130.23L16.61 134.03M10.71 131.69L14.96 135.26M9.34 133.15L12.08 135.45M7.97 134.62L8.97 135.45"/>
<path class="ln" stroke-width="0.2" d="M3.01 151.35L5.54 153.47M-0.1 151.35L4.99 155.61M-3.21 151.35L1.88 155.61M-5.58 151.96L-1.23 155.61M-7.23 153.19L-4.34 155.61M-8.89 154.41L-7.46 155.61"/>
<path class="ln" stroke-width="0.2" d="M56.94 113.05L57.14 113.21M53.82 113.05L55.63 114.56M50.71 113.05L54.12 115.9M47.6 113.05L52.61 117.25M45.59 113.97L51.1 118.59M43.94 115.2L49.59 119.94M42.29 116.42L48.08 121.28M40.64 117.65L46.25 122.35M38.99 118.87L43.14 122.35M37.34 120.1L40.03 122.35M35.69 121.32L36.92 122.35"/>
<path class="ln" stroke-width="0.2" d="M28.56 136.23L29.97 137.41M25.44 136.23L28.46 138.76M22.33 136.23L26.95 140.1M19.22 136.23L25.44 141.45M16.11 136.23L23.93 142.79M14.73 137.68L22.43 144.14M13.68 139.41L20.92 145.48M12.63 141.14L19.41 146.83M11.59 142.87L17.9 148.17M10.54 144.61L16.39 149.51M9.49 146.34L14.54 150.57M8.44 148.07L11.43 150.57M7.4 149.8L8.32 150.57"/>
<path class="ln" stroke-width="0.2" d="M73.41 105.99L74.95 107.27M70.3 105.99L73.61 108.76M67.19 105.99L72.28 110.25M65.6 107.26L70.94 111.74M64.09 108.61L68.46 112.27M62.58 109.95L65.35 112.27M61.07 111.3L62.24 112.27"/>
<path class="ln" stroke-width="0.2" d="M59.61 123.13L60.24 123.65M56.5 123.13L58.91 125.14M53.39 123.13L57.57 126.63M50.28 123.13L56.23 128.12M47.49 123.4L54.89 129.61M45.98 124.74L53.56 131.1M44.47 126.09L52.22 132.58M42.97 127.43L50.88 134.07M41.46 128.78L49.42 135.45M39.95 130.12L46.3 135.45M38.44 131.46L43.19 135.45M36.93 132.81L40.08 135.45M35.42 134.15L36.97 135.45"/>
<path class="ln" stroke-width="0.2" d="M34.13 151.35L34.84 151.94M31.02 151.35L33.5 153.43M27.91 151.35L32.16 154.92M24.79 151.35L29.88 155.61M21.68 151.35L26.77 155.61M18.57 151.35L23.66 155.61M15.8 151.63L20.55 155.61M14.29 152.97L17.44 155.61M12.78 154.32L14.32 155.61"/>
<path class="ln" stroke-width="0.2" d="M81.83 113.05L82.07 113.25M78.72 113.05L80.95 114.92M75.61 113.05L79.83 116.59M72.49 113.05L78.7 118.25M70.52 114L77.58 119.92M69.18 115.49L76.45 121.59M67.85 116.98L74.25 122.35M66.51 118.47L71.14 122.35M65.17 119.96L68.03 122.35M63.84 121.45L64.92 122.35"/>
<path class="ln" stroke-width="0.2" d="M65.89 136.23L66.34 136.61M62.78 136.23L65.22 138.27M59.67 136.23L64.1 139.94M56.56 136.23L62.97 141.61M53.45 136.23L61.85 143.28M50.46 136.33L60.73 144.94M49.13 137.82L59.6 146.61M47.79 139.31L58.48 148.28M46.45 140.8L57.35 149.95M45.12 142.29L54.99 150.57M43.78 143.78L51.88 150.57M42.44 145.27L48.77 150.57M41.11 146.76L45.66 150.57M39.77 148.25L42.54 150.57M38.43 149.74L39.43 150.57"/>
<path class="ln" stroke-width="0.2" d="M95.19 105.99L97.1 107.59M92.08 105.99L96.25 109.48M88.97 105.99L95.4 111.38M87.48 107.35L93.35 112.27M86.36 109.02L90.24 112.27M85.24 110.69L87.13 112.27"/>
<path class="ln" stroke-width="0.2" d="M87.62 123.13L89.44 124.65M84.51 123.13L88.59 126.55M81.4 123.13L87.74 128.45M78.28 123.13L86.88 130.34M76.25 124.03L86.03 132.24M75.13 125.7L85.18 134.14M74 127.37L83.64 135.45M72.88 129.04L80.53 135.45M71.76 130.7L77.42 135.45M70.63 132.37L74.31 135.45M69.51 134.04L71.2 135.45"/>
<path class="ln" stroke-width="0.2" d="M74.58 151.35L76.67 153.1M71.47 151.35L75.82 155M68.35 151.35L73.44 155.61M65.24 151.35L70.33 155.61M62.13 151.35L67.22 155.61M59.02 151.35L64.11 155.61M57.15 152.39L61 155.61M56.03 154.06L57.88 155.61"/>
<path class="ln" stroke-width="0.2" d="M106.72 113.05L107.04 113.31M103.61 113.05L106.54 115.51M100.5 113.05L106.05 117.71M97.39 113.05L105.56 119.9M95.47 114.05L105.07 122.1M94.62 115.94L102.26 122.35M93.76 117.84L99.14 122.35M92.91 119.74L96.03 122.35M92.06 121.63L92.92 122.35"/>
<path class="ln" stroke-width="0.2" d="M100.12 136.23L101.61 137.48M97.01 136.23L101.12 139.68M93.9 136.23L100.63 141.87M90.78 136.23L100.13 144.07M87.67 136.23L99.64 146.27M85.25 136.8L99.15 148.46M84.4 138.7L98.55 150.57M83.55 140.6L95.44 150.57M82.7 142.49L92.33 150.57M81.84 144.39L89.22 150.57M80.99 146.28L86.1 150.57M80.14 148.18L82.99 150.57M79.29 150.08L79.88 150.57"/>
<path class="ln" stroke-width="0.2" d="M116.97 105.99L119.54 108.14M113.86 105.99L119.54 110.75M110.75 105.99L118.25 112.27M109.43 107.49L115.13 112.27M108.94 109.69L112.02 112.27M108.45 111.89L108.91 112.27"/>
<path class="ln" stroke-width="0.2" d="M118.73 123.13L119.54 123.8M115.62 123.13L119.54 126.41M112.51 123.13L119.54 129.03M109.4 123.13L119.54 131.64M106.29 123.13L119.54 134.25M105.49 125.07L117.87 135.45M105 127.27L114.76 135.45M104.51 129.46L111.65 135.45M104.01 131.66L108.53 135.45M103.52 133.86L105.42 135.45"/>
<path class="ln" stroke-width="0.2" d="M118.14 151.35L119.54 152.52M115.03 151.35L119.54 155.13M111.91 151.35L117 155.61M108.8 151.35L113.89 155.61M105.69 151.35L110.78 155.61M102.58 151.35L107.67 155.61M99.57 151.43L104.56 155.61M99.08 153.63L101.44 155.61"/>
<path class="ln" stroke-width="0.2" d="M131.61 113.05L132.07 113.43M128.5 113.05L132.79 116.65M125.39 113.05L133.51 119.86M122.28 113.05L133.37 122.35M120.46 114.13L130.26 122.35M120.46 116.74L127.15 122.35M120.46 119.35L124.04 122.35M120.46 121.96L120.92 122.35"/>
<path class="ln" stroke-width="0.2" d="M134.34 136.23L137.84 139.16M131.23 136.23L138.57 142.38M128.12 136.23L139.29 145.6M125.01 136.23L140.02 148.82M121.9 136.23L139 150.57M120.46 137.63L135.89 150.57M120.46 140.24L132.78 150.57M120.46 142.85L129.66 150.57M120.46 145.46L126.55 150.57M120.46 148.07L123.44 150.57"/>
<path class="ln" stroke-width="0.2" d="M138.75 105.99L142.77 109.35M135.64 105.99L143.14 112.27M132.53 105.99L140.03 112.27M131.55 107.77L136.91 112.27M132.27 110.99L133.8 112.27"/>
<path class="ln" stroke-width="0.2" d="M146.74 123.13L150.3 126.12M143.62 123.13L152.18 130.3M140.51 123.13L154.06 134.49M137.4 123.13L152.09 135.45M135.15 123.85L148.98 135.45M135.87 127.07L145.87 135.45M136.6 130.28L142.76 135.45M137.32 133.5L139.65 135.45"/>
<path class="ln" stroke-width="0.2" d="M158.59 151.35L163.46 155.43M155.48 151.35L160.56 155.61M152.36 151.35L157.45 155.61M149.25 151.35L154.34 155.61M146.14 151.35L151.23 155.61M143.03 151.35L148.12 155.61M141.66 152.8L145.01 155.61"/>
<path class="ln" stroke-width="0.2" d="M156.5 113.05L157.35 113.75M153.39 113.05L161.39 119.76M150.28 113.05L161.37 122.35M147.17 113.05L158.26 122.35M145.57 114.32L155.15 122.35M147.45 118.51L152.04 122.35"/>
<path class="ln" stroke-width="0.2" d="M171.68 136.23L173.52 137.77M168.57 136.23L177.57 143.78M165.46 136.23L181.62 149.79M162.35 136.23L179.45 150.57M159.24 136.23L176.34 150.57M156.12 136.23L173.22 150.57M156.86 139.45L170.11 150.57M158.74 143.64L167 150.57M160.62 147.83L163.89 150.57"/>
<path class="ln" stroke-width="0.2" d="M160.53 105.99L168.03 112.27M157.42 105.99L164.92 112.27M154.31 105.99L161.81 112.27M154.23 108.53L158.69 112.27"/>
<path class="ln" stroke-width="0.2" d="M177.85 123.13L179.94 124.88M174.74 123.13L189.43 135.45M171.63 123.13L186.32 135.45M168.52 123.13L183.21 135.45M165.4 123.13L180.1 135.45M166.35 126.53L176.99 135.45M170.39 132.53L173.87 135.45"/>
<path class="ln" stroke-width="0.2" d="M202.15 151.35L207.23 155.61M199.04 151.35L204.12 155.61M195.92 151.35L201.01 155.61M192.81 151.35L197.9 155.61M189.7 151.35L194.79 155.61M186.59 151.35L191.68 155.61M183.48 151.35L188.57 155.61"/>
<path class="ln" stroke-width="0.2" d="M181.39 113.05L187.57 118.23M178.28 113.05L189.38 122.35M175.17 113.05L186.27 122.35M172.06 113.05L183.15 122.35M171.35 115.06L180.04 122.35"/>
<path class="ln" stroke-width="0.2" d="M205.91 136.23L223.01 150.57M202.8 136.23L219.9 150.57M199.68 136.23L216.78 150.57M196.57 136.23L213.67 150.57M193.46 136.23L210.56 150.57M190.39 136.26L207.45 150.57M199.88 146.83L204.34 150.57"/>
<path class="ln" stroke-width="0.2" d="M192 111.5L192.92 112.27M182.31 105.99L189.81 112.27M179.2 105.99L186.7 112.27M176.09 105.99L183.59 112.27"/>
<path class="ln" stroke-width="0.2" d="M218.96 131.51L223.66 135.45M205.85 123.13L220.55 135.45M202.74 123.13L217.43 135.45M199.63 123.13L214.32 135.45M196.52 123.13L211.21 135.45M193.41 123.13L208.1 135.45"/>
<path class="ln" stroke-width="0.2" d="M233.26 151.35L233.54 151.58M230.15 151.35L233.54 154.19M227.04 151.35L232.13 155.61"/>
<path class="ln" stroke-width="0.2" d="M218.96 121.07L220.49 122.35M206.29 113.05L217.38 122.35M203.17 113.05L214.27 122.35M200.06 113.05L211.16 122.35M196.95 113.05L208.05 122.35"/>
<path class="ln" stroke-width="0.2" d="M230.8 136.23L233.54 138.53M227.69 136.23L233.54 141.14M234.46 144.52L241.68 150.57M234.46 147.13L238.57 150.57M234.46 149.74L235.45 150.57"/>
<path class="ln" stroke-width="0.8" d="M6 102.6 H234"/>
<path class="ln" stroke-width="0.26" d="M233.47 102.7L233.89 103.05M231.29 102.7L233.89 104.87M229.11 102.7L232.46 105.5M226.93 102.7L230.28 105.5M224.76 102.7L228.1 105.5M222.58 102.7L225.92 105.5M220.4 102.7L223.74 105.5M218.22 102.7L221.57 105.5M216.04 102.7L219.39 105.5M213.87 102.7L217.21 105.5M211.69 102.7L215.03 105.5M209.51 102.7L212.85 105.5M207.33 102.7L210.68 105.5M205.15 102.7L208.5 105.5M202.98 102.7L206.32 105.5M200.8 102.7L204.14 105.5M198.62 102.7L201.96 105.5M196.44 102.7L199.79 105.5M194.26 102.7L197.61 105.5M192.09 102.7L195.43 105.5M189.91 102.7L193.25 105.5M187.73 102.7L191.07 105.5M185.55 102.7L188.9 105.5M183.37 102.7L186.72 105.5M181.2 102.7L184.54 105.5M179.02 102.7L182.36 105.5M176.84 102.7L180.18 105.5M174.66 102.7L178.01 105.5M172.48 102.7L175.83 105.5M170.31 102.7L173.65 105.5M168.13 102.7L171.47 105.5M165.95 102.7L169.29 105.5M163.77 102.7L167.12 105.5M161.59 102.7L164.94 105.5M159.42 102.7L162.76 105.5M157.24 102.7L160.58 105.5M155.06 102.7L158.4 105.5M152.88 102.7L156.23 105.5M150.7 102.7L154.05 105.5M148.52 102.7L151.87 105.5M146.35 102.7L149.69 105.5M144.17 102.7L147.51 105.5M141.99 102.7L145.34 105.5M139.81 102.7L143.16 105.5M137.63 102.7L140.98 105.5M135.46 102.7L138.8 105.5M133.28 102.7L136.62 105.5M131.1 102.7L134.45 105.5M128.92 102.7L132.27 105.5M126.74 102.7L130.09 105.5M124.57 102.7L127.91 105.5M122.39 102.7L125.73 105.5M120.21 102.7L123.56 105.5M118.03 102.7L121.38 105.5M115.85 102.7L119.2 105.5M113.68 102.7L117.02 105.5M111.5 102.7L114.84 105.5M109.32 102.7L112.67 105.5M107.14 102.7L110.49 105.5M104.96 102.7L108.31 105.5M102.79 102.7L106.13 105.5M100.61 102.7L103.95 105.5M98.43 102.7L101.78 105.5M96.25 102.7L99.6 105.5M94.07 102.7L97.42 105.5M91.9 102.7L95.24 105.5M89.72 102.7L93.06 105.5M87.54 102.7L90.89 105.5M85.36 102.7L88.71 105.5M83.18 102.7L86.53 105.5M81.01 102.7L84.35 105.5M78.83 102.7L82.17 105.5M76.65 102.7L80 105.5M74.47 102.7L77.82 105.5M72.29 102.7L75.64 105.5M70.12 102.7L73.46 105.5M67.94 102.7L71.28 105.5M65.76 102.7L69.11 105.5M63.58 102.7L66.93 105.5M61.4 102.7L64.75 105.5M59.23 102.7L62.57 105.5M57.05 102.7L60.39 105.5M54.87 102.7L58.22 105.5M52.69 102.7L56.04 105.5M50.51 102.7L53.86 105.5M48.34 102.7L51.68 105.5M46.16 102.7L49.5 105.5M43.98 102.7L47.33 105.5M41.8 102.7L45.15 105.5M39.62 102.7L42.97 105.5M37.45 102.7L40.79 105.5M35.27 102.7L38.61 105.5M33.09 102.7L36.44 105.5M30.91 102.7L34.26 105.5M28.73 102.7L32.08 105.5M26.56 102.7L29.9 105.5M24.38 102.7L27.72 105.5M22.2 102.7L25.55 105.5M20.02 102.7L23.37 105.5M17.84 102.7L21.19 105.5M15.67 102.7L19.01 105.5M13.49 102.7L16.83 105.5M11.31 102.7L14.66 105.5M9.13 102.7L12.48 105.5M6.95 102.7L10.3 105.5M6.11 103.82L8.12 105.5"/>
<g transform="matrix(0.8 0 0 0.8 24 13)">
<path class="ln" stroke-width="0.35" d="M24 20 C34 16 42 22 52 18 C58 16 60 12 56 11 C53 10 52 14 55 15 M176 26 C186 22 196 28 206 24 M60 28 C70 25 80 29 92 26 M168 16 C176 13 184 17 192 14 C196 13 197 10 194 9.6"/>
<path class="pap" stroke-width="0.6" d="M28 40 H212 V112 H28 Z"/>
<path class="ln" stroke-width="0.3" d="M28 45.4H212M28 50.8H212M28 56.2H212M28 61.6H212M28 67H212M28 72.4H212M28 77.8H212M28 83.2H212M28 88.6H212M28 94H212M28 99.4H212M28 104.8H212M28 110.2H212M28 112H212"/>
<path class="ln" stroke-width="0.3" d="M39 40V45.4M50 40V45.4M61 40V45.4M72 40V45.4M83 40V45.4M94 40V45.4M105 40V45.4M116 40V45.4M127 40V45.4M138 40V45.4M149 40V45.4M160 40V45.4M171 40V45.4M182 40V45.4M193 40V45.4M204 40V45.4M33.5 45.4V50.8M44.5 45.4V50.8M55.5 45.4V50.8M66.5 45.4V50.8M77.5 45.4V50.8M88.5 45.4V50.8M99.5 45.4V50.8M110.5 45.4V50.8M121.5 45.4V50.8M132.5 45.4V50.8M143.5 45.4V50.8M154.5 45.4V50.8M165.5 45.4V50.8M176.5 45.4V50.8M187.5 45.4V50.8M198.5 45.4V50.8M209.5 45.4V50.8M39 50.8V56.2M50 50.8V56.2M61 50.8V56.2M72 50.8V56.2M83 50.8V56.2M94 50.8V56.2M105 50.8V56.2M116 50.8V56.2M127 50.8V56.2M138 50.8V56.2M149 50.8V56.2M160 50.8V56.2M171 50.8V56.2M182 50.8V56.2M193 50.8V56.2M204 50.8V56.2M33.5 56.2V61.6M44.5 56.2V61.6M55.5 56.2V61.6M66.5 56.2V61.6M77.5 56.2V61.6M88.5 56.2V61.6M99.5 56.2V61.6M110.5 56.2V61.6M121.5 56.2V61.6M132.5 56.2V61.6M143.5 56.2V61.6M154.5 56.2V61.6M165.5 56.2V61.6M176.5 56.2V61.6M187.5 56.2V61.6M198.5 56.2V61.6M209.5 56.2V61.6M39 61.6V67M50 61.6V67M61 61.6V67M72 61.6V67M83 61.6V67M94 61.6V67M105 61.6V67M116 61.6V67M127 61.6V67M138 61.6V67M149 61.6V67M160 61.6V67M171 61.6V67M182 61.6V67M193 61.6V67M204 61.6V67M33.5 67V72.4M44.5 67V72.4M55.5 67V72.4M66.5 67V72.4M77.5 67V72.4M88.5 67V72.4M99.5 67V72.4M110.5 67V72.4M121.5 67V72.4M132.5 67V72.4M143.5 67V72.4M154.5 67V72.4M165.5 67V72.4M176.5 67V72.4M187.5 67V72.4M198.5 67V72.4M209.5 67V72.4M39 72.4V77.8M50 72.4V77.8M61 72.4V77.8M72 72.4V77.8M83 72.4V77.8M94 72.4V77.8M105 72.4V77.8M116 72.4V77.8M127 72.4V77.8M138 72.4V77.8M149 72.4V77.8M160 72.4V77.8M171 72.4V77.8M182 72.4V77.8M193 72.4V77.8M204 72.4V77.8M33.5 77.8V83.2M44.5 77.8V83.2M55.5 77.8V83.2M66.5 77.8V83.2M77.5 77.8V83.2M88.5 77.8V83.2M99.5 77.8V83.2M110.5 77.8V83.2M121.5 77.8V83.2M132.5 77.8V83.2M143.5 77.8V83.2M154.5 77.8V83.2M165.5 77.8V83.2M176.5 77.8V83.2M187.5 77.8V83.2M198.5 77.8V83.2M209.5 77.8V83.2M39 83.2V88.6M50 83.2V88.6M61 83.2V88.6M72 83.2V88.6M83 83.2V88.6M94 83.2V88.6M105 83.2V88.6M116 83.2V88.6M127 83.2V88.6M138 83.2V88.6M149 83.2V88.6M160 83.2V88.6M171 83.2V88.6M182 83.2V88.6M193 83.2V88.6M204 83.2V88.6M33.5 88.6V94M44.5 88.6V94M55.5 88.6V94M66.5 88.6V94M77.5 88.6V94M88.5 88.6V94M99.5 88.6V94M110.5 88.6V94M121.5 88.6V94M132.5 88.6V94M143.5 88.6V94M154.5 88.6V94M165.5 88.6V94M176.5 88.6V94M187.5 88.6V94M198.5 88.6V94M209.5 88.6V94M39 94V99.4M50 94V99.4M61 94V99.4M72 94V99.4M83 94V99.4M94 94V99.4M105 94V99.4M116 94V99.4M127 94V99.4M138 94V99.4M149 94V99.4M160 94V99.4M171 94V99.4M182 94V99.4M193 94V99.4M204 94V99.4M33.5 99.4V104.8M44.5 99.4V104.8M55.5 99.4V104.8M66.5 99.4V104.8M77.5 99.4V104.8M88.5 99.4V104.8M99.5 99.4V104.8M110.5 99.4V104.8M121.5 99.4V104.8M132.5 99.4V104.8M143.5 99.4V104.8M154.5 99.4V104.8M165.5 99.4V104.8M176.5 99.4V104.8M187.5 99.4V104.8M198.5 99.4V104.8M209.5 99.4V104.8M39 104.8V110.2M50 104.8V110.2M61 104.8V110.2M72 104.8V110.2M83 104.8V110.2M94 104.8V110.2M105 104.8V110.2M116 104.8V110.2M127 104.8V110.2M138 104.8V110.2M149 104.8V110.2M160 104.8V110.2M171 104.8V110.2M182 104.8V110.2M193 104.8V110.2M204 104.8V110.2M33.5 110.2V112M44.5 110.2V112M55.5 110.2V112M66.5 110.2V112M77.5 110.2V112M88.5 110.2V112M99.5 110.2V112M110.5 110.2V112M121.5 110.2V112M132.5 110.2V112M143.5 110.2V112M154.5 110.2V112M165.5 110.2V112M176.5 110.2V112M187.5 110.2V112M198.5 110.2V112M209.5 110.2V112"/>
<path class="ln" stroke-width="0.27" d="M86 44.5q1 0.8 2.2 0.3M142 44.5q1 0.8 2.2 0.3M69.5 49.9q1 0.8 2.2 0.3M135.5 49.9q1 0.8 2.2 0.3M145.5 49.9q1 0.8 2.2 0.3M160.5 49.9q1 0.8 2.2 0.3M70.5 60.7q1 0.8 2.2 0.3M157.5 60.7q1 0.8 2.2 0.3M55 66.1q1 0.8 2.2 0.3M87 66.1q1 0.8 2.2 0.3M154 66.1q1 0.8 2.2 0.3M46.5 71.5q1 0.8 2.2 0.3M101.5 71.5q1 0.8 2.2 0.3M148.5 71.5q1 0.8 2.2 0.3M78 76.9q1 0.8 2.2 0.3M118 76.9q1 0.8 2.2 0.3M154 76.9q1 0.8 2.2 0.3M98 87.7q1 0.8 2.2 0.3M108 87.7q1 0.8 2.2 0.3M162 87.7q1 0.8 2.2 0.3M46.5 93.1q1 0.8 2.2 0.3M53 98.5q1 0.8 2.2 0.3M66 98.5q1 0.8 2.2 0.3M72.5 103.9q1 0.8 2.2 0.3M99 109.3q1 0.8 2.2 0.3"/>
<path class="pap" stroke-width="0.7" d="M22 40 L30 30 H210 L218 40 Z"/>
<path class="ln" stroke-width="0.3" d="M28 32.5H212M26 35H214M24 37.5H216M30 30 q1.2 1.6 0 2.5M34 30 q1.2 1.6 0 2.5M38 30 q1.2 1.6 0 2.5M42 30 q1.2 1.6 0 2.5M46 30 q1.2 1.6 0 2.5M50 30 q1.2 1.6 0 2.5M54 30 q1.2 1.6 0 2.5M58 30 q1.2 1.6 0 2.5M62 30 q1.2 1.6 0 2.5M66 30 q1.2 1.6 0 2.5M70 30 q1.2 1.6 0 2.5M74 30 q1.2 1.6 0 2.5M78 30 q1.2 1.6 0 2.5M82 30 q1.2 1.6 0 2.5M86 30 q1.2 1.6 0 2.5M90 30 q1.2 1.6 0 2.5M94 30 q1.2 1.6 0 2.5M98 30 q1.2 1.6 0 2.5M102 30 q1.2 1.6 0 2.5M106 30 q1.2 1.6 0 2.5M110 30 q1.2 1.6 0 2.5M114 30 q1.2 1.6 0 2.5M118 30 q1.2 1.6 0 2.5M122 30 q1.2 1.6 0 2.5M126 30 q1.2 1.6 0 2.5M130 30 q1.2 1.6 0 2.5M134 30 q1.2 1.6 0 2.5M138 30 q1.2 1.6 0 2.5M142 30 q1.2 1.6 0 2.5M146 30 q1.2 1.6 0 2.5M150 30 q1.2 1.6 0 2.5M154 30 q1.2 1.6 0 2.5M158 30 q1.2 1.6 0 2.5M162 30 q1.2 1.6 0 2.5M166 30 q1.2 1.6 0 2.5M170 30 q1.2 1.6 0 2.5M174 30 q1.2 1.6 0 2.5M178 30 q1.2 1.6 0 2.5M182 30 q1.2 1.6 0 2.5M186 30 q1.2 1.6 0 2.5M190 30 q1.2 1.6 0 2.5M194 30 q1.2 1.6 0 2.5M198 30 q1.2 1.6 0 2.5M202 30 q1.2 1.6 0 2.5M206 30 q1.2 1.6 0 2.5M30 32.5 q1.2 1.6 0 2.5M34 32.5 q1.2 1.6 0 2.5M38 32.5 q1.2 1.6 0 2.5M42 32.5 q1.2 1.6 0 2.5M46 32.5 q1.2 1.6 0 2.5M50 32.5 q1.2 1.6 0 2.5M54 32.5 q1.2 1.6 0 2.5M58 32.5 q1.2 1.6 0 2.5M62 32.5 q1.2 1.6 0 2.5M66 32.5 q1.2 1.6 0 2.5M70 32.5 q1.2 1.6 0 2.5M74 32.5 q1.2 1.6 0 2.5M78 32.5 q1.2 1.6 0 2.5M82 32.5 q1.2 1.6 0 2.5M86 32.5 q1.2 1.6 0 2.5M90 32.5 q1.2 1.6 0 2.5M94 32.5 q1.2 1.6 0 2.5M98 32.5 q1.2 1.6 0 2.5M102 32.5 q1.2 1.6 0 2.5M106 32.5 q1.2 1.6 0 2.5M110 32.5 q1.2 1.6 0 2.5M114 32.5 q1.2 1.6 0 2.5M118 32.5 q1.2 1.6 0 2.5M122 32.5 q1.2 1.6 0 2.5M126 32.5 q1.2 1.6 0 2.5M130 32.5 q1.2 1.6 0 2.5M134 32.5 q1.2 1.6 0 2.5M138 32.5 q1.2 1.6 0 2.5M142 32.5 q1.2 1.6 0 2.5M146 32.5 q1.2 1.6 0 2.5M150 32.5 q1.2 1.6 0 2.5M154 32.5 q1.2 1.6 0 2.5M158 32.5 q1.2 1.6 0 2.5M162 32.5 q1.2 1.6 0 2.5M166 32.5 q1.2 1.6 0 2.5M170 32.5 q1.2 1.6 0 2.5M174 32.5 q1.2 1.6 0 2.5M178 32.5 q1.2 1.6 0 2.5M182 32.5 q1.2 1.6 0 2.5M186 32.5 q1.2 1.6 0 2.5M190 32.5 q1.2 1.6 0 2.5M194 32.5 q1.2 1.6 0 2.5M198 32.5 q1.2 1.6 0 2.5M202 32.5 q1.2 1.6 0 2.5M206 32.5 q1.2 1.6 0 2.5M210 32.5 q1.2 1.6 0 2.5M26 35 q1.2 1.6 0 2.5M30 35 q1.2 1.6 0 2.5M34 35 q1.2 1.6 0 2.5M38 35 q1.2 1.6 0 2.5M42 35 q1.2 1.6 0 2.5M46 35 q1.2 1.6 0 2.5M50 35 q1.2 1.6 0 2.5M54 35 q1.2 1.6 0 2.5M58 35 q1.2 1.6 0 2.5M62 35 q1.2 1.6 0 2.5M66 35 q1.2 1.6 0 2.5M70 35 q1.2 1.6 0 2.5M74 35 q1.2 1.6 0 2.5M78 35 q1.2 1.6 0 2.5M82 35 q1.2 1.6 0 2.5M86 35 q1.2 1.6 0 2.5M90 35 q1.2 1.6 0 2.5M94 35 q1.2 1.6 0 2.5M98 35 q1.2 1.6 0 2.5M102 35 q1.2 1.6 0 2.5M106 35 q1.2 1.6 0 2.5M110 35 q1.2 1.6 0 2.5M114 35 q1.2 1.6 0 2.5M118 35 q1.2 1.6 0 2.5M122 35 q1.2 1.6 0 2.5M126 35 q1.2 1.6 0 2.5M130 35 q1.2 1.6 0 2.5M134 35 q1.2 1.6 0 2.5M138 35 q1.2 1.6 0 2.5M142 35 q1.2 1.6 0 2.5M146 35 q1.2 1.6 0 2.5M150 35 q1.2 1.6 0 2.5M154 35 q1.2 1.6 0 2.5M158 35 q1.2 1.6 0 2.5M162 35 q1.2 1.6 0 2.5M166 35 q1.2 1.6 0 2.5M170 35 q1.2 1.6 0 2.5M174 35 q1.2 1.6 0 2.5M178 35 q1.2 1.6 0 2.5M182 35 q1.2 1.6 0 2.5M186 35 q1.2 1.6 0 2.5M190 35 q1.2 1.6 0 2.5M194 35 q1.2 1.6 0 2.5M198 35 q1.2 1.6 0 2.5M202 35 q1.2 1.6 0 2.5M206 35 q1.2 1.6 0 2.5M210 35 q1.2 1.6 0 2.5M26 37.5 q1.2 1.6 0 2.5M30 37.5 q1.2 1.6 0 2.5M34 37.5 q1.2 1.6 0 2.5M38 37.5 q1.2 1.6 0 2.5M42 37.5 q1.2 1.6 0 2.5M46 37.5 q1.2 1.6 0 2.5M50 37.5 q1.2 1.6 0 2.5M54 37.5 q1.2 1.6 0 2.5M58 37.5 q1.2 1.6 0 2.5M62 37.5 q1.2 1.6 0 2.5M66 37.5 q1.2 1.6 0 2.5M70 37.5 q1.2 1.6 0 2.5M74 37.5 q1.2 1.6 0 2.5M78 37.5 q1.2 1.6 0 2.5M82 37.5 q1.2 1.6 0 2.5M86 37.5 q1.2 1.6 0 2.5M90 37.5 q1.2 1.6 0 2.5M94 37.5 q1.2 1.6 0 2.5M98 37.5 q1.2 1.6 0 2.5M102 37.5 q1.2 1.6 0 2.5M106 37.5 q1.2 1.6 0 2.5M110 37.5 q1.2 1.6 0 2.5M114 37.5 q1.2 1.6 0 2.5M118 37.5 q1.2 1.6 0 2.5M122 37.5 q1.2 1.6 0 2.5M126 37.5 q1.2 1.6 0 2.5M130 37.5 q1.2 1.6 0 2.5M134 37.5 q1.2 1.6 0 2.5M138 37.5 q1.2 1.6 0 2.5M142 37.5 q1.2 1.6 0 2.5M146 37.5 q1.2 1.6 0 2.5M150 37.5 q1.2 1.6 0 2.5M154 37.5 q1.2 1.6 0 2.5M158 37.5 q1.2 1.6 0 2.5M162 37.5 q1.2 1.6 0 2.5M166 37.5 q1.2 1.6 0 2.5M170 37.5 q1.2 1.6 0 2.5M174 37.5 q1.2 1.6 0 2.5M178 37.5 q1.2 1.6 0 2.5M182 37.5 q1.2 1.6 0 2.5M186 37.5 q1.2 1.6 0 2.5M190 37.5 q1.2 1.6 0 2.5M194 37.5 q1.2 1.6 0 2.5M198 37.5 q1.2 1.6 0 2.5M202 37.5 q1.2 1.6 0 2.5M206 37.5 q1.2 1.6 0 2.5M210 37.5 q1.2 1.6 0 2.5M214 37.5 q1.2 1.6 0 2.5"/>
<path class="ln" stroke-width="0.24" d="M32.13 30.1L33.15 30.95M30.27 30.1L32.46 31.94M29.43 30.96L31.77 32.92M28.68 31.89L31.08 33.91M27.93 32.83L30.39 34.9M27.18 33.77L29.7 35.89M26.43 34.71L29.01 36.87M25.68 35.64L28.32 37.86M24.93 36.58L27.63 38.85M24.18 37.52L26.93 39.83M23.43 38.46L25.15 39.9M22.68 39.39L23.29 39.9"/>
<path class="ln" stroke-width="0.8" d="M28 40 H212"/>
<path class="ln" stroke-width="0.24" d="M211.6 40.1L211.89 40.33M209.58 40.1L211.89 42.03M207.56 40.1L210.19 42.3M205.54 40.1L208.17 42.3M203.51 40.1L206.14 42.3M201.49 40.1L204.12 42.3M199.47 40.1L202.1 42.3M197.45 40.1L200.08 42.3M195.42 40.1L198.05 42.3M193.4 40.1L196.03 42.3M191.38 40.1L194.01 42.3M189.36 40.1L191.99 42.3M187.33 40.1L189.96 42.3M185.31 40.1L187.94 42.3M183.29 40.1L185.92 42.3M181.27 40.1L183.9 42.3M179.24 40.1L181.87 42.3M177.22 40.1L179.85 42.3M175.2 40.1L177.83 42.3M173.18 40.1L175.81 42.3M171.15 40.1L173.78 42.3M169.13 40.1L171.76 42.3M167.11 40.1L169.74 42.3M165.09 40.1L167.72 42.3M163.06 40.1L165.69 42.3M161.04 40.1L163.67 42.3M159.02 40.1L161.65 42.3M157 40.1L159.63 42.3M154.97 40.1L157.6 42.3M152.95 40.1L155.58 42.3M150.93 40.1L153.56 42.3M148.91 40.1L151.54 42.3M146.88 40.1L149.52 42.3M144.86 40.1L147.49 42.3M142.84 40.1L145.47 42.3M140.82 40.1L143.45 42.3M138.79 40.1L141.43 42.3M136.77 40.1L139.4 42.3M134.75 40.1L137.38 42.3M132.73 40.1L135.36 42.3M130.71 40.1L133.34 42.3M128.68 40.1L131.31 42.3M126.66 40.1L129.29 42.3M124.64 40.1L127.27 42.3M122.62 40.1L125.25 42.3M120.59 40.1L123.22 42.3M118.57 40.1L121.2 42.3M116.55 40.1L119.18 42.3M114.53 40.1L117.16 42.3M112.5 40.1L115.13 42.3M110.48 40.1L113.11 42.3M108.46 40.1L111.09 42.3M106.44 40.1L109.07 42.3M104.41 40.1L107.04 42.3M102.39 40.1L105.02 42.3M100.37 40.1L103 42.3M98.35 40.1L100.98 42.3M96.32 40.1L98.95 42.3M94.3 40.1L96.93 42.3M92.28 40.1L94.91 42.3M90.26 40.1L92.89 42.3M88.23 40.1L90.86 42.3M86.21 40.1L88.84 42.3M84.19 40.1L86.82 42.3M82.17 40.1L84.8 42.3M80.14 40.1L82.77 42.3M78.12 40.1L80.75 42.3M76.1 40.1L78.73 42.3M74.08 40.1L76.71 42.3M72.05 40.1L74.68 42.3M70.03 40.1L72.66 42.3M68.01 40.1L70.64 42.3M65.99 40.1L68.62 42.3M63.96 40.1L66.59 42.3M61.94 40.1L64.57 42.3M59.92 40.1L62.55 42.3M57.9 40.1L60.53 42.3M55.87 40.1L58.51 42.3M53.85 40.1L56.48 42.3M51.83 40.1L54.46 42.3M49.81 40.1L52.44 42.3M47.79 40.1L50.42 42.3M45.76 40.1L48.39 42.3M43.74 40.1L46.37 42.3M41.72 40.1L44.35 42.3M39.7 40.1L42.33 42.3M37.67 40.1L40.3 42.3M35.65 40.1L38.28 42.3M33.63 40.1L36.26 42.3M31.61 40.1L34.24 42.3M29.58 40.1L32.21 42.3M28.11 40.56L30.19 42.3"/>
<path class="ln" stroke-width="0.24" d="M38.98 42.5L39.89 43.26M36.64 42.5L39.89 45.22M34.71 42.84L39.89 47.17M34.71 44.79L39.89 49.13M34.71 46.75L39.89 51.09M34.71 48.71L39.89 53.05M34.71 50.67L39.89 55.01M34.71 52.63L39.89 56.96M34.71 54.58L39.89 58.92M34.71 56.54L39.89 60.88M34.71 58.5L39.89 62.84M34.71 60.46L39.89 64.8M34.71 62.42L39.89 66.76M34.71 64.38L39.89 68.71M34.71 66.33L39.89 70.67M34.71 68.29L39.89 72.63M34.71 70.25L39.89 74.59M34.71 72.21L39.89 76.55M34.71 74.17L39.89 78.5M34.71 76.12L39.89 80.46M34.71 78.08L39.89 82.42M34.71 80.04L39.89 84.38M34.71 82L39.89 86.34M34.71 83.96L39.89 88.29M34.71 85.91L39.89 90.25M34.71 87.87L39.89 92.21M34.71 89.83L39.89 94.17M34.71 91.79L39.89 96.13M34.71 93.75L39.89 98.09M34.71 95.71L39.89 100.04M34.71 97.66L39.89 102M34.71 99.62L39.89 103.96M34.71 101.58L39.89 105.92M34.71 103.54L39.89 107.88M34.71 105.5L39.89 109.83M34.71 107.45L39.89 111.79M34.71 109.41L37.68 111.9M34.71 111.37L35.35 111.9"/>
<path class="ln" stroke-width="0.24" d="M94.98 42.5L95.89 43.25M92.65 42.5L95.89 45.21M92.51 44.34L95.89 47.17M92.51 46.3L95.89 49.13M92.51 48.26L95.89 51.09M92.51 50.22L95.89 53.04M92.51 52.17L95.89 55M92.51 54.13L95.89 56.96M92.51 56.09L95.89 58.92M92.51 58.05L95.89 60.88M92.51 60.01L95.89 62.83M92.51 61.96L95.89 64.79M92.51 63.92L95.89 66.75M92.51 65.88L95.89 68.71M92.51 67.84L95.89 70.67M92.51 69.8L95.89 72.62M92.51 71.75L95.89 74.58M92.51 73.71L95.89 76.54M92.51 75.67L95.89 78.5M92.51 77.63L95.89 80.46M92.51 79.59L95.89 82.42M92.51 81.55L95.89 84.37M92.51 83.5L95.89 86.33M92.51 85.46L95.89 88.29M92.51 87.42L95.89 90.25M92.51 89.38L95.89 92.21M92.51 91.34L95.89 94.16M92.51 93.29L95.89 96.12M92.51 95.25L95.89 98.08M92.51 97.21L95.89 100.04M92.51 99.17L95.89 102M92.51 101.13L95.89 103.95M92.51 103.08L95.89 105.91M92.51 105.04L95.89 107.87M92.51 107L95.89 109.83M92.51 108.96L95.89 111.79M92.51 110.92L93.69 111.9"/>
<path class="ln" stroke-width="0.24" d="M150.99 42.5L151.89 43.25M148.66 42.5L151.89 45.21M148.51 44.34L151.89 47.16M148.51 46.29L151.89 49.12M148.51 48.25L151.89 51.08M148.51 50.21L151.89 53.04M148.51 52.17L151.89 55M148.51 54.13L151.89 56.95M148.51 56.08L151.89 58.91M148.51 58.04L151.89 60.87M148.51 60L151.89 62.83M148.51 61.96L151.89 64.79M148.51 63.92L151.89 66.75M148.51 65.88L151.89 68.7M148.51 67.83L151.89 70.66M148.51 69.79L151.89 72.62M148.51 71.75L151.89 74.58M148.51 73.71L151.89 76.54M148.51 75.67L151.89 78.49M148.51 77.62L151.89 80.45M148.51 79.58L151.89 82.41M148.51 81.54L151.89 84.37M148.51 83.5L151.89 86.33M148.51 85.46L151.89 88.28M148.51 87.41L151.89 90.24M148.51 89.37L151.89 92.2M148.51 91.33L151.89 94.16M148.51 93.29L151.89 96.12M148.51 95.25L151.89 98.08M148.51 97.21L151.89 100.03M148.51 99.16L151.89 101.99M148.51 101.12L151.89 103.95M148.51 103.08L151.89 105.91M148.51 105.04L151.89 107.87M148.51 107L151.89 109.82M148.51 108.95L151.89 111.78M148.51 110.91L149.7 111.9"/>
<path class="ln" stroke-width="0.24" d="M211.66 42.5L211.89 42.68M209.33 42.5L211.89 44.64M207 42.5L211.89 46.6M206.71 44.22L211.89 48.56M206.71 46.18L211.89 50.52M206.71 48.14L211.89 52.47M206.71 50.09L211.89 54.43M206.71 52.05L211.89 56.39M206.71 54.01L211.89 58.35M206.71 55.97L211.89 60.31M206.71 57.93L211.89 62.26M206.71 59.88L211.89 64.22M206.71 61.84L211.89 66.18M206.71 63.8L211.89 68.14M206.71 65.76L211.89 70.1M206.71 67.72L211.89 72.05M206.71 69.67L211.89 74.01M206.71 71.63L211.89 75.97M206.71 73.59L211.89 77.93M206.71 75.55L211.89 79.89M206.71 77.51L211.89 81.85M206.71 79.47L211.89 83.8M206.71 81.42L211.89 85.76M206.71 83.38L211.89 87.72M206.71 85.34L211.89 89.68M206.71 87.3L211.89 91.64M206.71 89.26L211.89 93.59M206.71 91.21L211.89 95.55M206.71 93.17L211.89 97.51M206.71 95.13L211.89 99.47M206.71 97.09L211.89 101.43M206.71 99.05L211.89 103.38M206.71 101L211.89 105.34M206.71 102.96L211.89 107.3M206.71 104.92L211.89 109.26M206.71 106.88L211.89 111.22M206.71 108.84L210.37 111.9M206.71 110.79L208.04 111.9"/>
<g data-ph="1">
<path class="pap" stroke-width="0.8" d="M40 112 V58 C40 47 88 47 88 58 V112 Z"/>
<g>
<path class="ln" stroke-width="0.25" d="M40.6 56H87.4M40.6 60H87.4M40.6 64H87.4M40.6 68H87.4M40.6 72H87.4M40.6 76H87.4M40.6 80H87.4M40.6 84H87.4M40.6 88H87.4M40.6 92H87.4M40.6 96H87.4M40.6 100H87.4M40.6 104H87.4M40.6 106H87.4"/>
<path class="ln" stroke-width="0.25" d="M47.6 52V56M54.6 52V56M61.6 52V56M68.6 52V56M75.6 52V56M82.6 52V56M44.1 56V60M51.1 56V60M58.1 56V60M65.1 56V60M72.1 56V60M79.1 56V60M86.1 56V60M47.6 60V64M54.6 60V64M61.6 60V64M68.6 60V64M75.6 60V64M82.6 60V64M44.1 64V68M51.1 64V68M58.1 64V68M65.1 64V68M72.1 64V68M79.1 64V68M86.1 64V68M47.6 68V72M54.6 68V72M61.6 68V72M68.6 68V72M75.6 68V72M82.6 68V72M44.1 72V76M51.1 72V76M58.1 72V76M65.1 72V76M72.1 72V76M79.1 72V76M86.1 72V76M47.6 76V80M54.6 76V80M61.6 76V80M68.6 76V80M75.6 76V80M82.6 76V80M44.1 80V84M51.1 80V84M58.1 80V84M65.1 80V84M72.1 80V84M79.1 80V84M86.1 80V84M47.6 84V88M54.6 84V88M61.6 84V88M68.6 84V88M75.6 84V88M82.6 84V88M44.1 88V92M51.1 88V92M58.1 88V92M65.1 88V92M72.1 88V92M79.1 88V92M86.1 88V92M47.6 92V96M54.6 92V96M61.6 92V96M68.6 92V96M75.6 92V96M82.6 92V96M44.1 96V100M51.1 96V100M58.1 96V100M65.1 96V100M72.1 96V100M79.1 96V100M86.1 96V100M47.6 100V104M54.6 100V104M61.6 100V104M68.6 100V104M75.6 100V104M82.6 100V104M44.1 104V106M51.1 104V106M58.1 104V106M65.1 104V106M72.1 104V106M79.1 104V106M86.1 104V106"/>
</g>
<path class="ln" stroke-width="0.24" d="M45.72 49.33L49.7 52.67M44.05 49.76L49.77 54.56M42.85 50.58L49.5 56.15M41.91 51.62L49.22 57.75M41.15 52.8L48.95 59.35M40.68 54.24L48.67 60.94M40.33 55.77L48.4 62.54M40.17 57.47L48.12 64.14M40.11 59.25L47.85 65.73M40.11 61.07L47.57 67.33M40.11 62.9L47.29 68.93M40.11 64.73L47.02 70.52M40.11 66.56L46.74 72.12M40.11 68.38L46.47 73.72M40.11 70.21L46.19 75.31M40.11 72.04L45.92 76.91M40.11 73.87L45.64 78.51M40.11 75.69L45.37 80.1M40.11 77.52L45.09 81.7M40.11 79.35L44.82 83.3M40.11 81.18L44.54 84.89M40.11 83L44.27 86.49M40.11 84.83L43.99 88.09M40.11 86.66L43.72 89.68M40.11 88.49L43.44 91.28M40.11 90.32L43.17 92.88M40.11 92.14L42.89 94.47M40.11 93.97L42.62 96.07M40.11 95.8L42.34 97.66M40.11 97.63L42.06 99.26M40.11 99.45L41.79 100.86M40.11 101.28L41.51 102.45M40.11 103.11L41.24 104.05M40.11 104.94L40.96 105.65M40.11 106.76L40.69 107.24M40.11 108.59L40.41 108.84"/>
<path class="pap" stroke-width="0.45" d="M44 106 H84 L88 112 H40 Z"/>
<path class="ln" stroke-width="0.3" d="M54 106L52 112 M64 106L64 112 M74 106L76 112"/>
<path class="ln" stroke-width="0.35" d="M46 52.77 L42.76 47.77M52 49.17 L49.84 44.17M58 47.02 L56.92 42.02M64 46.3 L64 41.3M70 47.02 L71.08 42.02M76 49.17 L78.16 44.17M82 52.77 L85.24 47.77"/>
<path class="ln" stroke-width="0.6" d="M36.6 58 C36.6 41 91.4 41 91.4 58"/>
<path class="pap" stroke-width="0.8" d="M96 112 V58 C96 47 144 47 144 58 V112 Z"/>
<g>
<path class="ln" stroke-width="0.25" d="M96.6 56H143.4M96.6 60H143.4M96.6 64H143.4M96.6 68H143.4M96.6 72H143.4M96.6 76H143.4M96.6 80H143.4M96.6 84H143.4M96.6 88H143.4M96.6 92H143.4M96.6 96H143.4M96.6 100H143.4M96.6 104H143.4M96.6 106H143.4"/>
<path class="ln" stroke-width="0.25" d="M103.6 52V56M110.6 52V56M117.6 52V56M124.6 52V56M131.6 52V56M138.6 52V56M100.1 56V60M107.1 56V60M114.1 56V60M121.1 56V60M128.1 56V60M135.1 56V60M142.1 56V60M103.6 60V64M110.6 60V64M117.6 60V64M124.6 60V64M131.6 60V64M138.6 60V64M100.1 64V68M107.1 64V68M114.1 64V68M121.1 64V68M128.1 64V68M135.1 64V68M142.1 64V68M103.6 68V72M110.6 68V72M117.6 68V72M124.6 68V72M131.6 68V72M138.6 68V72M100.1 72V76M107.1 72V76M114.1 72V76M121.1 72V76M128.1 72V76M135.1 72V76M142.1 72V76M103.6 76V80M110.6 76V80M117.6 76V80M124.6 76V80M131.6 76V80M138.6 76V80M100.1 80V84M107.1 80V84M114.1 80V84M121.1 80V84M128.1 80V84M135.1 80V84M142.1 80V84M103.6 84V88M110.6 84V88M117.6 84V88M124.6 84V88M131.6 84V88M138.6 84V88M100.1 88V92M107.1 88V92M114.1 88V92M121.1 88V92M128.1 88V92M135.1 88V92M142.1 88V92M103.6 92V96M110.6 92V96M117.6 92V96M124.6 92V96M131.6 92V96M138.6 92V96M100.1 96V100M107.1 96V100M114.1 96V100M121.1 96V100M128.1 96V100M135.1 96V100M142.1 96V100M103.6 100V104M110.6 100V104M117.6 100V104M124.6 100V104M131.6 100V104M138.6 100V104M100.1 104V106M107.1 104V106M114.1 104V106M121.1 104V106M128.1 104V106M135.1 104V106M142.1 104V106"/>
</g>
<path class="ln" stroke-width="0.24" d="M102.34 49.32L105.61 52.07M100.48 49.59L105.85 54.1M99.17 50.31L105.58 55.69M98.13 51.28L105.3 57.29M97.37 52.46L105.03 58.89M96.82 53.83L104.75 60.48M96.38 55.29L104.48 62.08M96.22 56.98L104.2 63.68M96.11 58.72L103.92 65.27M96.11 60.55L103.65 66.87M96.11 62.37L103.37 68.47M96.11 64.2L103.1 70.06M96.11 66.03L102.82 71.66M96.11 67.86L102.55 73.26M96.11 69.68L102.27 74.85M96.11 71.51L102 76.45M96.11 73.34L101.72 78.05M96.11 75.17L101.45 79.64M96.11 76.99L101.17 81.24M96.11 78.82L100.9 82.83M96.11 80.65L100.62 84.43M96.11 82.48L100.35 86.03M96.11 84.31L100.07 87.62M96.11 86.13L99.8 89.22M96.11 87.96L99.52 90.82M96.11 89.79L99.25 92.41M96.11 91.62L98.97 94.01M96.11 93.44L98.69 95.61M96.11 95.27L98.42 97.2M96.11 97.1L98.14 98.8M96.11 98.93L97.87 100.4M96.11 100.75L97.59 101.99M96.11 102.58L97.32 103.59M96.11 104.41L97.04 105.19M96.11 106.24L96.77 106.78M96.11 108.06L96.49 108.38"/>
<path class="pap" stroke-width="0.45" d="M100 106 H140 L144 112 H96 Z"/>
<path class="ln" stroke-width="0.3" d="M110 106L108 112 M120 106L120 112 M130 106L132 112"/>
<path class="ln" stroke-width="0.35" d="M102 52.77 L98.76 47.77M108 49.17 L105.84 44.17M114 47.02 L112.92 42.02M120 46.3 L120 41.3M126 47.02 L127.08 42.02M132 49.17 L134.16 44.17M138 52.77 L141.24 47.77"/>
<path class="ln" stroke-width="0.6" d="M92.6 58 C92.6 41 147.4 41 147.4 58"/>
<path class="pap" stroke-width="0.8" d="M152 112 V58 C152 47 200 47 200 58 V112 Z"/>
<g>
<path class="ln" stroke-width="0.25" d="M152.6 56H199.4M152.6 60H199.4M152.6 64H199.4M152.6 68H199.4M152.6 72H199.4M152.6 76H199.4M152.6 80H199.4M152.6 84H199.4M152.6 88H199.4M152.6 92H199.4M152.6 96H199.4M152.6 100H199.4M152.6 104H199.4M152.6 106H199.4"/>
<path class="ln" stroke-width="0.25" d="M159.6 52V56M166.6 52V56M173.6 52V56M180.6 52V56M187.6 52V56M194.6 52V56M156.1 56V60M163.1 56V60M170.1 56V60M177.1 56V60M184.1 56V60M191.1 56V60M198.1 56V60M159.6 60V64M166.6 60V64M173.6 60V64M180.6 60V64M187.6 60V64M194.6 60V64M156.1 64V68M163.1 64V68M170.1 64V68M177.1 64V68M184.1 64V68M191.1 64V68M198.1 64V68M159.6 68V72M166.6 68V72M173.6 68V72M180.6 68V72M187.6 68V72M194.6 68V72M156.1 72V76M163.1 72V76M170.1 72V76M177.1 72V76M184.1 72V76M191.1 72V76M198.1 72V76M159.6 76V80M166.6 76V80M173.6 76V80M180.6 76V80M187.6 76V80M194.6 76V80M156.1 80V84M163.1 80V84M170.1 80V84M177.1 80V84M184.1 80V84M191.1 80V84M198.1 80V84M159.6 84V88M166.6 84V88M173.6 84V88M180.6 84V88M187.6 84V88M194.6 84V88M156.1 88V92M163.1 88V92M170.1 88V92M177.1 88V92M184.1 88V92M191.1 88V92M198.1 88V92M159.6 92V96M166.6 92V96M173.6 92V96M180.6 92V96M187.6 92V96M194.6 92V96M156.1 96V100M163.1 96V100M170.1 96V100M177.1 96V100M184.1 96V100M191.1 96V100M198.1 96V100M159.6 100V104M166.6 100V104M173.6 100V104M180.6 100V104M187.6 100V104M194.6 100V104M156.1 104V106M163.1 104V106M170.1 104V106M177.1 104V106M184.1 104V106M191.1 104V106M198.1 104V106"/>
</g>
<path class="ln" stroke-width="0.24" d="M159.22 49.53L161.15 51.15M156.91 49.42L161.83 53.55M155.48 50.05L161.66 55.23M154.39 50.96L161.38 56.83M153.59 52.12L161.11 58.43M152.95 53.41L160.83 60.02M152.48 54.85L160.55 61.62M152.27 56.49L160.28 63.22M152.11 58.19L160 64.81M152.11 60.02L159.73 66.41M152.11 61.85L159.45 68.01M152.11 63.67L159.18 69.6M152.11 65.5L158.9 71.2M152.11 67.33L158.63 72.79M152.11 69.16L158.35 74.39M152.11 70.98L158.08 75.99M152.11 72.81L157.8 77.58M152.11 74.64L157.53 79.18M152.11 76.47L157.25 80.78M152.11 78.3L156.98 82.37M152.11 80.12L156.7 83.97M152.11 81.95L156.43 85.57M152.11 83.78L156.15 87.16M152.11 85.61L155.88 88.76M152.11 87.43L155.6 90.36M152.11 89.26L155.32 91.95M152.11 91.09L155.05 93.55M152.11 92.92L154.77 95.15M152.11 94.74L154.5 96.74M152.11 96.57L154.22 98.34M152.11 98.4L153.95 99.94M152.11 100.23L153.67 101.53M152.11 102.05L153.4 103.13M152.11 103.88L153.12 104.73M152.11 105.71L152.85 106.32M152.11 107.54L152.57 107.92"/>
<path class="pap" stroke-width="0.45" d="M156 106 H196 L200 112 H152 Z"/>
<path class="ln" stroke-width="0.3" d="M166 106L164 112 M176 106L176 112 M186 106L188 112"/>
<path class="ln" stroke-width="0.35" d="M158 52.77 L154.76 47.77M164 49.17 L161.84 44.17M170 47.02 L168.92 42.02M176 46.3 L176 41.3M182 47.02 L183.08 42.02M188 49.17 L190.16 44.17M194 52.77 L197.24 47.77"/>
<path class="ln" stroke-width="0.6" d="M148.6 58 C148.6 41 203.4 41 203.4 58"/>
</g>
<g data-ph="1">
<path class="pap" stroke-width="0.7" d="M66 64H80V79H66Z"/>
<path class="ln" stroke-width="0.45" d="M73 64 V79 M66 71.5 H80"/>
<path class="ln" stroke-width="0.24" d="M71.97 64.7L72.49 65.13M70.26 64.7L72.49 66.57M68.55 64.7L72.49 68M66.83 64.7L72.49 69.44M66.71 66.03L72.49 70.87M66.71 67.47L70.81 70.9M66.71 68.9L69.1 70.9M66.71 70.34L67.39 70.9"/>
<path class="ln" stroke-width="0.24" d="M79.2 72.2L79.49 72.44M77.48 72.2L79.49 73.88M75.77 72.2L79.49 75.31M74.06 72.2L79.49 76.75M73.71 73.34L79.49 78.18M73.71 74.78L78.04 78.4M73.71 76.21L76.32 78.4M73.71 77.65L74.61 78.4"/>
<path class="pap" stroke-width="0.55" d="M64.6 79H81.4V81H64.6Z"/>
<path class="pap" stroke-width="0.45" d="M69 76.6 H77 V81.4 H69 Z"/>
<path class="ln" stroke-width="0.35" d="M69 76.6 L73 79.4 L77 76.6"/>
<g>
<path class="pap" stroke-width="0.7" d="M60 55.8H86V62.2H60Z"/>
<path class="ln" stroke-width="0.25" d="M61 56.8H85V61.2H61Z"/>
<text class="rub" x="73" y="60.8" font-size="5" text-anchor="middle">ПОЧТА</text>
</g>
<g>
<g>
<path class="pg-skin" stroke-width="0.5" d="M57.14 96.93 C58.19 98.23 59.11 98.3 59.83 97.22 C60.55 96.14 60.14 95.32 58.53 94.85 Z"/>
<path class="ln" stroke-width="0.3" d="M59.55 96.37L60.05 96.71M59.22 96.87L59.72 97.21M58.92 97.33L59.41 97.66M57.92 97.39Q57.86 98.55 59.11 98.66"/>
<path class="pg-blue" stroke-width="0.55" d="M49.72 72.37 Q50.13 93.01 56.7 97.95 L59.3 94.05 Q53.87 90.99 53.92 72.34 Z"/>
<path class="ln" stroke-width="0.26" d="M51.94 72.83L53.86 74.43M52 74.96L53.92 76.58M52.08 77.12L54.04 78.77M52.22 79.32L54.23 81.01M52.44 81.6L54.49 83.32M52.74 83.94L54.87 85.73M53.17 86.39L55.49 88.33M53.83 89.03L56.71 91.45M54.94 92.05L58.48 95.02"/>
<path class="ln" stroke-width="0.4" d="M55.37 97.07Q57.08 95.39 57.97 93.16"/>
<path class="ln" stroke-width="0.3" d="M50.61 87.1Q51.6 92 52.52 93.56"/>
</g>
<g>
<path class="ink" stroke-width="0.2" d="M56.52 110.5 C57.35 108.99 61.21 109.25 61.72 110.92 L56.52 111.17 Z"/>
<path class="ink" stroke-width="0.2" d="M48.97 110.5 C49.81 109.16 53.16 109.25 53.5 111.09 L48.97 111.26 Z"/>
<path class="pg-blue" stroke-width="0.65" d="M49.3 70.25 C47.12 71.08 46.54 73.94 46.79 77.29 L46.28 87.35 C45.11 95.74 43.77 104.13 43.26 110 Q54 111.68 64.74 110 C64.23 104.13 63.06 95.74 61.88 87.35 L61.21 77.29 C61.46 73.94 60.88 71.08 58.7 70.25 Q54 68.4 49.3 70.25 Z"/>
<path class="ln" stroke-width="0.3" d="M48.65 70.78L50.13 72.02M47.76 71.79L50.04 73.71M47.21 73.09L49.95 75.4M46.92 74.62L49.87 77.09M46.86 76.33L49.78 78.78M46.87 78.1L49.7 80.47M46.78 79.79L49.61 82.16M46.7 81.48L49.53 83.85M46.61 83.17L49.44 85.54M46.53 84.86L49.36 87.23M46.44 86.55L49.32 88.97M46.29 88.19L49.3 90.71M46.07 89.76L49.29 92.47M45.84 91.34L49.28 94.22M45.62 92.91L49.29 95.99M45.39 94.48L49.3 97.76M45.16 96.05L49.32 99.54M44.93 97.62L49.34 101.32M44.71 99.2L49.37 103.11M44.49 100.78L49.4 104.89M44.27 102.36L49.43 106.68M44.07 103.94L49.47 108.48M43.87 105.54L49.5 110.27M43.68 107.14L48.42 111.12M43.5 108.76L45.67 110.58"/>
<path class="ln" stroke-width="0.22" d="M56.26 101.61L58.35 99.86M56.53 103.99L61.07 100.18M56.85 106.34L63.04 101.14M57.16 108.68L63.7 103.2M57.44 111.06L64.06 105.5M61.13 110.58L64.39 107.84"/>
<path class="ln" stroke-width="0.24" d="M43.38 109.8L45.01 108.44M45.14 110.15L46.96 108.63M47.06 110.37L48.97 108.77M49.03 110.55L51.03 108.87M51.06 110.67L53.16 108.91M53.17 110.73L55.35 108.9M55.35 110.72L57.61 108.83M57.62 110.65L59.95 108.7M59.99 110.49L62.38 108.49M62.47 110.23L64.48 108.55"/>
<path class="ln" stroke-width="0.35" d="M50.48 87.69 C49.3 95.74 47.94 103.29 47.63 110.84M53.5 88.03 C53.25 95.74 53.04 103.29 52.99 110.84M56.85 87.86 C57.86 95.74 58.78 103.29 59.03 110.84M59.54 87.52 C61.21 95.74 62.29 103.29 62.72 110.34M52.15 70.92 C51.65 76.45 51.32 81.48 50.98 86.18M56.18 70.58 C56.52 76.45 57.02 81.48 57.19 86.18"/>
<path class="ln" stroke-width="0.45" d="M51.15 69.41 Q53.66 72.93 55.01 74.27 Q56.01 72.43 57.35 69.49"/>
<path class="ln" stroke-width="0.75" d="M46.2 86.01 Q54 87.86 61.97 86.01"/>
<path class="ln" stroke-width="0.35" d="M46.2 87.02 Q54 88.86 61.97 87.02"/>
<path class="ln" stroke-width="0.4" d="M55.01 88.03 C55.34 91.55 54.84 94.06 55.17 97.42 M55.85 88.03 C56.35 91.55 56.18 94.06 56.68 96.58"/>
</g>
<path class="ln" stroke-width="0.45" d="M52.96 67.83L53.14 70.6 M55.64 68.18L55.55 70.43"/>
<path class="pg-skin" stroke-width="0.55" d="M54.17 59.54 C56.42 59.63 57.63 61.1 57.71 62.82 C57.8 63.43 58.41 64.47 58.75 65.16 L57.8 65.59 L57.89 66.28 C58.06 66.71 57.8 67.23 57.63 67.58 C57.54 68.35 57.11 68.96 55.9 69.04 C54.52 69.13 52.62 68.01 51.06 66.11 C49.85 64.47 50.29 60.23 54.17 59.54 Z"/>
<path class="ln" stroke-width="0.24" d="M51.02 61.48L51.4 61.8M50.5 62.73L52.16 64.13M50.45 64.4L51.82 65.55"/>
<path class="ln" stroke-width="0.35" d="M52.79 63.69 C51.75 63.17 51.58 65.42 52.88 65.59"/>
<path class="ln" stroke-width="0.4" d="M55.38 62.48 Q56.25 61.96 57.2 62.39"/>
<path class="ln" stroke-width="0.42" d="M55.73 63.77 Q56.33 63.26 56.94 63.77"/>
<path class="ln" stroke-width="0.35" d="M56.59 66.88 L57.54 66.88"/>
<path class="ln" stroke-width="0.3" d="M57.97 65.07 Q57.46 65.33 57.28 64.9"/>
<path class="pap" stroke-width="0.55" d="M49.68 62.82 C49.16 58.33 53.14 56.78 56.25 58.33 C57.8 59.11 58.32 60.41 58.15 61.18 C55.3 60.06 52.27 60.41 49.68 62.82 Z"/>
<path class="ln" stroke-width="0.3" d="M50.03 61.96 C52.27 60.23 55.73 59.97 57.97 61.01"/>
<path class="ln" stroke-width="0.24" d="M50.36 59.57L52.01 58.18M49.77 61.75L54.37 57.9M52.86 60.86L55.88 58.33M55.33 60.49L57.05 59.04M57.08 60.72L57.84 60.08"/>
<path class="ink" stroke-width="0.2" d="M49.77 62.82 C49.34 64.55 49.85 65.59 50.72 65.93 L51.41 61.96 Z"/>
<g>
<path class="pg-skin" stroke-width="0.5" d="M67.91 82.88 C69.24 81.86 69.84 80.21 68.78 79.46 C67.71 78.71 66.37 79.85 65.86 81.45 Z"/>
<path class="ln" stroke-width="0.3" d="M67.41 80.46L68.1 79.47M67.9 80.8L68.59 79.82M68.35 81.12L69.04 80.13M68.38 82.11Q69.55 82.2 69.69 80.95"/>
<path class="pg-blue" stroke-width="0.55" d="M56.6 72.06 Q59.43 94.04 68.92 83.35 L65.08 80.65 Q60.57 89.96 60.79 71.79 Z"/>
<path class="ln" stroke-width="0.26" d="M56.77 72.7L58.81 74.41M56.99 74.97L59.06 76.71M66.46 82.92L67.74 84M57.33 77.35L59.43 79.11M65.41 84.12L66.33 84.9M57.88 79.89L60.08 81.74M64.08 85.1L64.71 85.63M58.99 82.92L62.45 85.82"/>
<path class="ln" stroke-width="0.4" d="M68.01 84.66Q66.37 82.9 64.16 81.96"/>
<path class="ln" stroke-width="0.3" d="M58.34 87.07Q59.6 92.03 62.08 90.78"/>
</g>
</g>
</g>
<g data-ph="1">
<g>
<path class="pap" stroke-width="0.7" d="M107 52.8H133V59.2H107Z"/>
<path class="ln" stroke-width="0.25" d="M108 53.8H132V58.2H108Z"/>
<text class="rub" x="120" y="57.8" font-size="5" text-anchor="middle">ПОИСК</text>
</g>
<path class="ln" stroke-width="0.7" d="M134 110 V90 M128 110 H140 M131 104 H137"/>
<path class="ln" stroke-width="0.22" d="M134.11 90.21L135.49 91.36M134.11 91.39L135.49 92.54M134.11 92.56L135.49 93.71M134.11 93.74L135.49 94.89M134.11 94.91L135.49 96.06M134.11 96.09L135.49 97.24M134.11 97.26L135.49 98.41M134.11 98.44L135.49 99.59M134.11 99.61L135.49 100.76M134.11 100.79L135.49 101.94M134.11 101.96L135.49 103.11M134.11 103.14L135.49 104.29M134.11 104.31L135.49 105.46M134.11 105.49L135.49 106.64M134.11 106.66L135.49 107.81M134.11 107.84L135.49 108.99M134.11 109.01L135.18 109.9"/>
<path class="pg-brown" stroke-width="0.55" d="M124 90.6 L142 85.4 L142.6 87.6 L124.6 92.8 Z"/>
<path class="ln" stroke-width="0.22" d="M141.46 85.6L141.9 85.6M138.69 86.4L142.12 86.4M135.92 87.2L142.34 87.2M133.15 88L141.07 88M130.38 88.8L138.3 88.8M127.61 89.6L135.53 89.6M124.84 90.4L132.76 90.4M124.31 91.2L129.99 91.2M124.53 92L127.22 92"/>
<path class="pap" stroke-width="0.5" d="M124.4 90 L133 87.6 L133 82.4 C130 82.2 127 83.4 124.6 84.8 Z"/>
<path class="pap" stroke-width="0.5" d="M133 87.6 L141.8 85.2 L141.6 80 C139 79.8 135.6 80.8 133 82.4 Z"/>
<path class="ln" stroke-width="0.25" d="M126 85.6 L131.6 83.8 M126 87.2 L131.6 85.4 M126 88.6 L131 87.2 M134.4 83.2 L140.4 81.4 M134.4 84.8 L140.4 83 M134.4 86.4 L140 84.8"/>
<g>
<g>
<path class="pg-skin" stroke-width="0.5" d="M117.14 96.93 C118.19 98.23 119.11 98.3 119.83 97.22 C120.55 96.14 120.14 95.32 118.53 94.85 Z"/>
<path class="ln" stroke-width="0.3" d="M119.55 96.37L120.05 96.71M119.22 96.87L119.72 97.21M118.92 97.33L119.41 97.66M117.92 97.39Q117.86 98.55 119.11 98.66"/>
<path class="pap" stroke-width="0.55" d="M106.75 72.69 Q110.22 93.15 116.7 97.95 L119.3 94.05 Q113.78 90.85 110.89 72.02 Z"/>
<path class="ln" stroke-width="0.26" d="M108.97 72.64L111.23 74.54M109.4 75.09L111.71 77.02M109.88 77.58L112.24 79.56M110.43 80.13L112.88 82.18M111.08 82.76L113.67 84.94M111.89 85.53L114.76 87.94M112.97 88.52L116.74 91.69M114.61 92L118.38 95.16"/>
<path class="ln" stroke-width="0.4" d="M115.37 97.07Q117.08 95.39 117.97 93.16"/>
<path class="ln" stroke-width="0.3" d="M109.88 87.3Q111.61 92.06 112.52 93.56"/>
</g>
<g>
<path class="ink" stroke-width="0.2" d="M113.52 110.5 C114.35 108.99 118.21 109.25 118.72 110.92 L113.52 111.17 Z"/>
<path class="ink" stroke-width="0.2" d="M105.97 110.5 C106.81 109.16 110.16 109.25 110.5 111.09 L105.97 111.26 Z"/>
<path class="pap" stroke-width="0.65" d="M106.3 70.25 C104.12 71.08 103.54 73.94 103.79 77.29 L103.28 87.35 C102.11 95.74 100.77 104.13 100.26 110 Q111 111.68 121.74 110 C121.23 104.13 120.06 95.74 118.88 87.35 L118.21 77.29 C118.46 73.94 117.88 71.08 115.7 70.25 Q111 68.4 106.3 70.25 Z"/>
<path class="ln" stroke-width="0.3" d="M105.5 70.9L107.11 72.26M104.66 71.96L107.03 73.95M104.15 73.3L106.94 75.64M103.9 74.85L106.86 77.33M103.86 76.58L106.77 79.02M103.86 78.33L106.69 80.71M103.77 80.03L106.6 82.4M103.69 81.72L106.52 84.09M103.6 83.41L106.43 85.78M103.51 85.1L106.35 87.48M103.43 86.79L106.32 89.21M103.26 88.41L106.3 90.96M103.04 89.98L106.29 92.71M102.81 91.56L106.29 94.47M102.58 93.13L106.29 96.24M102.36 94.7L106.3 98.01M102.13 96.27L106.32 99.79M101.9 97.84L106.34 101.57M101.68 99.42L106.37 103.36M101.46 101L106.4 105.14M101.25 102.58L106.44 106.93M101.04 104.16L106.47 108.73M100.84 105.76L106.51 110.52M100.65 107.37L105.06 111.07M100.48 108.99L102.26 110.48"/>
<path class="ln" stroke-width="0.22" d="M113.19 100.83L114.32 99.88M113.44 103.24L117.28 100.01M113.75 105.59L119.52 100.75M114.06 107.93L120.57 102.47M114.36 110.3L120.95 104.77M116.86 110.81L121.29 107.09M120.83 110.09L121.57 109.46"/>
<path class="ln" stroke-width="0.24" d="M100.42 109.46L101.68 108.4M101.83 110.11L103.63 108.6M103.73 110.34L105.63 108.75M105.69 110.52L107.68 108.85M107.71 110.65L109.79 108.91M109.8 110.72L111.97 108.91M111.97 110.73L114.22 108.85M114.23 110.66L116.55 108.72M116.58 110.52L118.96 108.52M119.05 110.28L121.46 108.26"/>
<path class="ln" stroke-width="0.35" d="M107.48 87.69 C106.3 95.74 104.94 103.29 104.63 110.84M110.5 88.03 C110.25 95.74 110.04 103.29 109.99 110.84M113.85 87.86 C114.86 95.74 115.78 103.29 116.03 110.84M116.54 87.52 C118.21 95.74 119.29 103.29 119.72 110.34M109.15 70.92 C108.65 76.45 108.32 81.48 107.98 86.18M113.18 70.58 C113.52 76.45 114.02 81.48 114.19 86.18"/>
<path class="ln" stroke-width="0.45" d="M108.15 69.41 Q110.66 72.93 112.01 74.27 Q113.01 72.43 114.35 69.49"/>
<path class="ln" stroke-width="0.75" d="M103.2 86.01 Q111 87.86 118.97 86.01"/>
<path class="ln" stroke-width="0.35" d="M103.2 87.02 Q111 88.86 118.97 87.02"/>
<path class="ln" stroke-width="0.4" d="M112.01 88.03 C112.34 91.55 111.84 94.06 112.17 97.42 M112.85 88.03 C113.35 91.55 113.18 94.06 113.68 96.58"/>
</g>
<path class="ln" stroke-width="0.45" d="M109.96 67.83L110.14 70.6 M112.64 68.18L112.55 70.43"/>
<path class="pap" stroke-width="0.6" d="M105.47 71.55 C104.43 62.48 105.82 56.78 111 57.12 C115.49 57.3 116.53 61.61 116.01 65.07 C113.59 69.39 111 71.98 105.47 71.55 Z"/>
<path class="ln" stroke-width="0.26" d="M108.31 57.59L109.8 58.85M107.1 58.54L109.58 60.62M106.32 59.85L109.36 62.39M105.8 61.37L109.14 64.17M105.48 63.05L108.92 65.94M105.31 64.87L108.7 67.72M105.26 66.79L108.48 69.49M105.34 68.81L108.03 71.06M105.52 70.92L106.04 71.35"/>
<path class="pg-skin" stroke-width="0.55" d="M111.17 59.54 C113.42 59.63 114.63 61.1 114.71 62.82 C114.8 63.43 115.41 64.47 115.75 65.16 L114.8 65.59 L114.89 66.28 C115.06 66.71 114.8 67.23 114.63 67.58 C114.54 68.35 114.11 68.96 112.9 69.04 C111.52 69.13 109.62 68.01 108.06 66.11 C106.85 64.47 107.29 60.23 111.17 59.54 Z"/>
<path class="ln" stroke-width="0.24" d="M107.88 61.68L108.68 62.34M107.45 63.01L109.17 64.45M107.53 64.77L108.65 65.72"/>
<path class="ln" stroke-width="0.35" d="M109.79 63.69 C108.75 63.17 108.58 65.42 109.88 65.59"/>
<path class="ln" stroke-width="0.4" d="M112.38 63.17 Q113.25 62.65 114.2 63.08"/>
<path class="ln" stroke-width="0.42" d="M112.73 64.47 Q113.33 63.95 113.94 64.47"/>
<path class="ln" stroke-width="0.35" d="M113.59 66.88 L114.54 66.88"/>
<path class="ln" stroke-width="0.3" d="M114.97 65.07 Q114.46 65.33 114.28 64.9"/>
<g>
<path class="pg-skin" stroke-width="0.5" d="M125.45 89.3 C126.57 88.06 126.88 86.33 125.69 85.78 C124.51 85.24 123.39 86.6 123.18 88.26 Z"/>
<path class="ln" stroke-width="0.3" d="M124.53 87.01L125.03 85.92M125.07 87.26L125.57 86.17M125.57 87.49L126.07 86.4M125.78 88.46Q126.94 88.34 126.86 87.09"/>
<path class="pap" stroke-width="0.55" d="M113.65 72.37 Q120.77 98.11 126.53 89.58 L122.27 87.62 Q121.23 93.89 117.74 71.47 Z"/>
<path class="ln" stroke-width="0.26" d="M113.77 72.49L116.21 74.54M114.4 75.11L116.84 77.15M115.08 77.76L117.53 79.82M115.88 80.52L118.34 82.59M116.92 83.49L119.33 85.51M124.05 89.47L125.15 90.39M118.39 86.81L121.04 89.03M122.6 90.34L123.36 90.98"/>
<path class="ln" stroke-width="0.4" d="M125.87 91.03Q123.94 89.6 121.6 89.07"/>
<path class="ln" stroke-width="0.3" d="M118.36 90.27Q120.61 96.09 122.53 95.09"/>
</g>
</g>
<path class="ln" stroke-width="1.1" d="M126.6 83.4 L124.6 87.6"/>
<path class="pap" stroke-width="0.9" d="M125.2 80.4 C125.2 78.31 126.91 76.6 129 76.6 C131.09 76.6 132.8 78.31 132.8 80.4 C132.8 82.49 131.09 84.2 129 84.2 C126.91 84.2 125.2 82.49 125.2 80.4 Z"/>
<path class="pap" stroke-width="0.3" d="M126.3 80.4 C126.3 78.92 127.52 77.7 129 77.7 C130.49 77.7 131.7 78.92 131.7 80.4 C131.7 81.89 130.49 83.1 129 83.1 C127.52 83.1 126.3 81.89 126.3 80.4 Z"/>
<path class="ln" stroke-width="0.35" d="M127.2 79 C127.6 78.2 128.4 77.8 129.2 77.8"/>
<path class="pg-skin" stroke-width="0.5" d="M125.5 88.82 C126.23 87.5 125.97 86.71 124.82 86.48 C123.68 86.25 123.14 86.88 123.3 88.38 Z"/>
<path class="ln" stroke-width="0.3" d="M124.21 87L124.32 86.47M124.74 87.11L124.85 86.58M125.23 87.21L125.34 86.68M125.62 88.02Q126.61 87.66 126.27 86.59"/>
</g>
<g data-ph="2">
<path class="pg-brown" stroke-width="0.7" d="M152.4 112 V58.4 C152.4 47.4 199.6 47.4 199.6 58.4 V112 Z"/>
<path class="ln" stroke-width="0.35" d="M158 50 V112M164 50 V112M170 50 V112M176 50 V112M182 50 V112M188 50 V112M194 50 V112"/>
<path class="ln" stroke-width="0.18" d="M168.39 50.6L183.61 50.6M154.54 55L197.46 55M153.08 57.2L198.92 57.2M152.55 61.6L199.45 61.6M152.55 63.8L199.45 63.8M152.55 68.2L199.45 68.2M152.55 70.4L199.45 70.4M152.55 74.8L199.45 74.8M152.55 77L199.45 77M152.55 81.4L199.45 81.4M152.55 83.6L199.45 83.6M152.55 88L199.45 88M152.55 90.2L199.45 90.2M152.55 94.6L199.45 94.6M152.55 96.8L199.45 96.8M152.55 101.2L199.45 101.2M152.55 103.4L199.45 103.4M152.55 107.8L199.45 107.8M152.55 110L199.45 110"/>
<path class="ink" stroke-width="0.3" d="M152.4 66H199.6V69H152.4Z"/>
<path class="pap" stroke-width="0.3" d="M155.3 67.5 C155.3 67.11 155.62 66.8 156 66.8 C156.38 66.8 156.7 67.11 156.7 67.5 C156.7 67.89 156.38 68.2 156 68.2 C155.62 68.2 155.3 67.89 155.3 67.5 Z"/>
<path class="pap" stroke-width="0.3" d="M165.3 67.5 C165.3 67.11 165.62 66.8 166 66.8 C166.38 66.8 166.7 67.11 166.7 67.5 C166.7 67.89 166.38 68.2 166 68.2 C165.62 68.2 165.3 67.89 165.3 67.5 Z"/>
<path class="pap" stroke-width="0.3" d="M185.3 67.5 C185.3 67.11 185.62 66.8 186 66.8 C186.38 66.8 186.7 67.11 186.7 67.5 C186.7 67.89 186.38 68.2 186 68.2 C185.62 68.2 185.3 67.89 185.3 67.5 Z"/>
<path class="pap" stroke-width="0.3" d="M195.3 67.5 C195.3 67.11 195.62 66.8 196 66.8 C196.38 66.8 196.7 67.11 196.7 67.5 C196.7 67.89 196.38 68.2 196 68.2 C195.62 68.2 195.3 67.89 195.3 67.5 Z"/>
<path class="ink" stroke-width="0.3" d="M152.4 96H199.6V99H152.4Z"/>
<path class="pap" stroke-width="0.3" d="M155.3 97.5 C155.3 97.11 155.62 96.8 156 96.8 C156.38 96.8 156.7 97.11 156.7 97.5 C156.7 97.89 156.38 98.2 156 98.2 C155.62 98.2 155.3 97.89 155.3 97.5 Z"/>
<path class="pap" stroke-width="0.3" d="M165.3 97.5 C165.3 97.11 165.62 96.8 166 96.8 C166.38 96.8 166.7 97.11 166.7 97.5 C166.7 97.89 166.38 98.2 166 98.2 C165.62 98.2 165.3 97.89 165.3 97.5 Z"/>
<path class="pap" stroke-width="0.3" d="M185.3 97.5 C185.3 97.11 185.62 96.8 186 96.8 C186.38 96.8 186.7 97.11 186.7 97.5 C186.7 97.89 186.38 98.2 186 98.2 C185.62 98.2 185.3 97.89 185.3 97.5 Z"/>
<path class="pap" stroke-width="0.3" d="M195.3 97.5 C195.3 97.11 195.62 96.8 196 96.8 C196.38 96.8 196.7 97.11 196.7 97.5 C196.7 97.89 196.38 98.2 196 98.2 C195.62 98.2 195.3 97.89 195.3 97.5 Z"/>
<path class="pap" stroke-width="0.5" d="M153.62 58.55 C153.12 59.03 153.34 60.07 154.1 60.86 C154.86 61.66 155.88 61.92 156.38 61.45 C156.88 60.97 156.66 59.93 155.9 59.14 C155.14 58.34 154.12 58.08 153.62 58.55 Z"/>
<path class="ln" stroke-width="0.5" d="M154.38 59.35 L155.62 60.65"/>
<path class="ln" stroke-width="1.3" d="M155.51 60.54 L158.14 63.29"/>
<path class="pap" stroke-width="0.5" d="M157.27 62.38 C156.77 62.85 156.99 63.89 157.75 64.69 C158.51 65.48 159.54 65.75 160.03 65.27 C160.53 64.8 160.32 63.76 159.56 62.96 C158.8 62.17 157.77 61.9 157.27 62.38 Z"/>
<path class="ln" stroke-width="0.5" d="M158.03 63.18 L159.27 64.48"/>
<path class="ln" stroke-width="1.3" d="M159.17 64.36 L161.79 67.11"/>
<path class="pap" stroke-width="0.5" d="M160.92 66.21 C160.43 66.68 160.64 67.72 161.4 68.52 C162.16 69.31 163.19 69.57 163.69 69.1 C164.18 68.62 163.97 67.58 163.21 66.79 C162.45 65.99 161.42 65.73 160.92 66.21 Z"/>
<path class="ln" stroke-width="0.5" d="M161.68 67 L162.93 68.3"/>
<path class="ln" stroke-width="1.3" d="M162.82 68.19 L165.44 70.94"/>
<path class="pap" stroke-width="0.5" d="M164.58 70.03 C164.08 70.51 164.29 71.55 165.05 72.34 C165.81 73.14 166.84 73.4 167.34 72.92 C167.83 72.45 167.62 71.41 166.86 70.62 C166.1 69.82 165.07 69.56 164.58 70.03 Z"/>
<path class="ln" stroke-width="0.5" d="M165.34 70.83 L166.58 72.13"/>
<path class="ln" stroke-width="1.3" d="M166.47 72.02 L169.09 74.77"/>
<path class="pap" stroke-width="0.5" d="M168.23 73.86 C167.73 74.33 167.94 75.37 168.7 76.17 C169.46 76.96 170.49 77.23 170.99 76.75 C171.49 76.28 171.27 75.24 170.51 74.44 C169.75 73.65 168.73 73.38 168.23 73.86 Z"/>
<path class="ln" stroke-width="0.5" d="M168.99 74.65 L170.23 75.96"/>
<path class="ln" stroke-width="1.3" d="M170.12 75.84 L172.75 78.59"/>
<path class="pap" stroke-width="0.5" d="M171.88 77.68 C171.38 78.16 171.6 79.2 172.36 79.99 C173.12 80.79 174.14 81.05 174.64 80.58 C175.14 80.1 174.92 79.06 174.17 78.27 C173.41 77.47 172.38 77.21 171.88 77.68 Z"/>
<path class="ln" stroke-width="0.5" d="M172.64 78.48 L173.88 79.78"/>
<path class="ln" stroke-width="1.3" d="M173.78 79.67 L176.4 82.42"/>
<path class="pap" stroke-width="0.5" d="M175.53 81.51 C175.03 81.98 175.25 83.02 176.01 83.82 C176.77 84.62 177.8 84.88 178.29 84.4 C178.79 83.93 178.58 82.89 177.82 82.09 C177.06 81.3 176.03 81.04 175.53 81.51 Z"/>
<path class="ln" stroke-width="0.5" d="M176.29 82.31 L177.53 83.61"/>
<path class="ln" stroke-width="1.3" d="M177.43 83.5 L180.05 86.24"/>
<path class="pap" stroke-width="0.5" d="M179.18 85.34 C178.69 85.81 178.9 86.85 179.66 87.65 C180.42 88.44 181.45 88.7 181.95 88.23 C182.44 87.75 182.23 86.72 181.47 85.92 C180.71 85.12 179.68 84.86 179.18 85.34 Z"/>
<path class="ln" stroke-width="0.5" d="M179.94 86.13 L181.19 87.43"/>
<path class="ln" stroke-width="1.3" d="M181.08 87.32 L183.7 90.07"/>
<path class="pap" stroke-width="0.5" d="M182.84 89.16 C182.34 89.64 182.55 90.68 183.31 91.47 C184.07 92.27 185.1 92.53 185.6 92.06 C186.1 91.58 185.88 90.54 185.12 89.75 C184.36 88.95 183.33 88.69 182.84 89.16 Z"/>
<path class="ln" stroke-width="0.5" d="M183.6 89.96 L184.84 91.26"/>
<path class="ln" stroke-width="1.3" d="M184.73 91.15 L187.36 93.9"/>
<path class="pap" stroke-width="0.5" d="M186.49 92.99 C185.99 93.46 186.21 94.5 186.97 95.3 C187.72 96.09 188.75 96.36 189.25 95.88 C189.75 95.41 189.53 94.37 188.77 93.57 C188.01 92.78 186.99 92.51 186.49 92.99 Z"/>
<path class="ln" stroke-width="0.5" d="M187.25 93.78 L188.49 95.09"/>
<path class="ln" stroke-width="1.3" d="M188.38 94.97 L191.01 97.72"/>
<path class="pap" stroke-width="0.5" d="M190.14 96.81 C189.64 97.29 189.86 98.33 190.62 99.12 C191.38 99.92 192.41 100.18 192.9 99.71 C193.4 99.23 193.19 98.19 192.43 97.4 C191.67 96.6 190.64 96.34 190.14 96.81 Z"/>
<path class="ln" stroke-width="0.5" d="M190.9 97.61 L192.14 98.91"/>
<path class="ln" stroke-width="1.3" d="M192.04 98.8 L194.66 101.55"/>
<path class="pap" stroke-width="0.5" d="M193.79 100.64 C193.3 101.11 193.51 102.15 194.27 102.95 C195.03 103.75 196.06 104.01 196.55 103.53 C197.05 103.06 196.84 102.02 196.08 101.22 C195.32 100.43 194.29 100.17 193.79 100.64 Z"/>
<path class="ln" stroke-width="0.5" d="M194.55 101.44 L195.8 102.74"/>
<path class="ln" stroke-width="1.3" d="M195.69 102.63 L198.31 105.37"/>
<path class="pap" stroke-width="0.5" d="M198.38 58.55 C197.88 58.08 196.86 58.34 196.1 59.14 C195.34 59.93 195.12 60.97 195.62 61.45 C196.12 61.92 197.14 61.66 197.9 60.86 C198.66 60.07 198.88 59.03 198.38 58.55 Z"/>
<path class="ln" stroke-width="0.5" d="M197.62 59.35 L196.38 60.65"/>
<path class="ln" stroke-width="1.3" d="M196.49 60.54 L193.86 63.29"/>
<path class="pap" stroke-width="0.5" d="M194.73 62.38 C194.23 61.9 193.2 62.17 192.44 62.96 C191.68 63.76 191.47 64.8 191.97 65.27 C192.46 65.75 193.49 65.48 194.25 64.69 C195.01 63.89 195.23 62.85 194.73 62.38 Z"/>
<path class="ln" stroke-width="0.5" d="M193.97 63.18 L192.73 64.48"/>
<path class="ln" stroke-width="1.3" d="M192.83 64.36 L190.21 67.11"/>
<path class="pap" stroke-width="0.5" d="M191.08 66.21 C190.58 65.73 189.55 65.99 188.79 66.79 C188.03 67.58 187.82 68.62 188.31 69.1 C188.81 69.57 189.84 69.31 190.6 68.52 C191.36 67.72 191.57 66.68 191.08 66.21 Z"/>
<path class="ln" stroke-width="0.5" d="M190.32 67 L189.07 68.3"/>
<path class="ln" stroke-width="1.3" d="M189.18 68.19 L186.56 70.94"/>
<path class="pap" stroke-width="0.5" d="M187.42 70.03 C186.93 69.56 185.9 69.82 185.14 70.62 C184.38 71.41 184.17 72.45 184.66 72.92 C185.16 73.4 186.19 73.14 186.95 72.34 C187.71 71.55 187.92 70.51 187.42 70.03 Z"/>
<path class="ln" stroke-width="0.5" d="M186.66 70.83 L185.42 72.13"/>
<path class="ln" stroke-width="1.3" d="M185.53 72.02 L182.91 74.77"/>
<path class="pap" stroke-width="0.5" d="M183.77 73.86 C183.27 73.38 182.25 73.65 181.49 74.44 C180.73 75.24 180.51 76.28 181.01 76.75 C181.51 77.23 182.54 76.96 183.3 76.17 C184.06 75.37 184.27 74.33 183.77 73.86 Z"/>
<path class="ln" stroke-width="0.5" d="M183.01 74.65 L181.77 75.96"/>
<path class="ln" stroke-width="1.3" d="M181.88 75.84 L179.25 78.59"/>
<path class="pap" stroke-width="0.5" d="M180.12 77.68 C179.62 77.21 178.59 77.47 177.83 78.27 C177.08 79.06 176.86 80.1 177.36 80.58 C177.86 81.05 178.88 80.79 179.64 79.99 C180.4 79.2 180.62 78.16 180.12 77.68 Z"/>
<path class="ln" stroke-width="0.5" d="M179.36 78.48 L178.12 79.78"/>
<path class="ln" stroke-width="1.3" d="M178.22 79.67 L175.6 82.42"/>
<path class="pap" stroke-width="0.5" d="M176.47 81.51 C175.97 81.04 174.94 81.3 174.18 82.09 C173.42 82.89 173.21 83.93 173.71 84.4 C174.2 84.88 175.23 84.62 175.99 83.82 C176.75 83.02 176.97 81.98 176.47 81.51 Z"/>
<path class="ln" stroke-width="0.5" d="M175.71 82.31 L174.47 83.61"/>
<path class="ln" stroke-width="1.3" d="M174.57 83.5 L171.95 86.24"/>
<path class="pap" stroke-width="0.5" d="M172.82 85.34 C172.32 84.86 171.29 85.12 170.53 85.92 C169.77 86.72 169.56 87.75 170.05 88.23 C170.55 88.7 171.58 88.44 172.34 87.65 C173.1 86.85 173.31 85.81 172.82 85.34 Z"/>
<path class="ln" stroke-width="0.5" d="M172.06 86.13 L170.81 87.43"/>
<path class="ln" stroke-width="1.3" d="M170.92 87.32 L168.3 90.07"/>
<path class="pap" stroke-width="0.5" d="M169.16 89.16 C168.67 88.69 167.64 88.95 166.88 89.75 C166.12 90.54 165.9 91.58 166.4 92.06 C166.9 92.53 167.93 92.27 168.69 91.47 C169.45 90.68 169.66 89.64 169.16 89.16 Z"/>
<path class="ln" stroke-width="0.5" d="M168.4 89.96 L167.16 91.26"/>
<path class="ln" stroke-width="1.3" d="M167.27 91.15 L164.64 93.9"/>
<path class="pap" stroke-width="0.5" d="M165.51 92.99 C165.01 92.51 163.99 92.78 163.23 93.57 C162.47 94.37 162.25 95.41 162.75 95.88 C163.25 96.36 164.28 96.09 165.03 95.3 C165.79 94.5 166.01 93.46 165.51 92.99 Z"/>
<path class="ln" stroke-width="0.5" d="M164.75 93.78 L163.51 95.09"/>
<path class="ln" stroke-width="1.3" d="M163.62 94.97 L160.99 97.72"/>
<path class="pap" stroke-width="0.5" d="M161.86 96.81 C161.36 96.34 160.33 96.6 159.57 97.4 C158.81 98.19 158.6 99.23 159.1 99.71 C159.59 100.18 160.62 99.92 161.38 99.12 C162.14 98.33 162.36 97.29 161.86 96.81 Z"/>
<path class="ln" stroke-width="0.5" d="M161.1 97.61 L159.86 98.91"/>
<path class="ln" stroke-width="1.3" d="M159.96 98.8 L157.34 101.55"/>
<path class="pap" stroke-width="0.5" d="M158.21 100.64 C157.71 100.17 156.68 100.43 155.92 101.22 C155.16 102.02 154.95 103.06 155.45 103.53 C155.94 104.01 156.97 103.75 157.73 102.95 C158.49 102.15 158.7 101.11 158.21 100.64 Z"/>
<path class="ln" stroke-width="0.5" d="M157.45 101.44 L156.2 102.74"/>
<path class="ln" stroke-width="1.3" d="M156.31 102.63 L153.69 105.37"/>
<path class="pg-red" stroke-width="0.7" d="M171.4 80 C171.4 77.47 173.47 75.4 176 75.4 C178.53 75.4 180.6 77.47 180.6 80 C180.6 82.53 178.53 84.6 176 84.6 C173.47 84.6 171.4 82.53 171.4 80 Z"/>
<path class="pg-red" stroke-width="0.4" d="M174 84 L172.6 90 L175 88.4 L176.4 90.6 L177 84.6 Z"/>
<path class="ln" stroke-width="0.4" d="M173.4 80 H178.6 M176 77.4 V82.6"/>
<g>
<path class="ln" stroke-width="1.375" d="M172.75 96 V92.25 C172.75 87.75 179.25 87.75 179.25 92.25 V96"/>
<path class="pg-gold" stroke-width="0.9" d="M171 95.25 H181 V101 C181 104.25 171 104.25 171 101 Z"/>
<path class="ln" stroke-width="0.22" d="M180.53 95.35L180.89 95.65M178.97 95.35L180.89 96.95M178.11 95.93L180.89 98.26M178.11 97.24L180.89 99.56M178.11 98.55L180.89 100.87M178.11 99.85L180.69 102.01M178.11 101.16L180.16 102.87M178.11 102.46L179.31 103.47"/>
<path class="ink" stroke-width="0.2" d="M174.88 98.75 a1.12 1.12 0 1 0 2.25 0 a1.12 1.12 0 1 0 -2.25 0 Z M175.5 99.25 h1 l0.5 2.75 h-2 Z"/>
</g>
<g>
<path class="pap" stroke-width="0.7" d="M156 57.5H196V64.5H156Z"/>
<path class="ln" stroke-width="0.25" d="M157 58.5H195V63.5H157Z"/>
<text class="rub" x="176" y="62.66" font-size="4.6" text-anchor="middle">КОД · ХУКИ</text>
</g>
</g>
<g data-ph="2">
<path class="ln" stroke-width="0.7" d="M46 61 V112M54 61 V112M62 61 V112M70 61 V112M78 61 V112M86 61 V112M40 61 H88 M40 84 H88"/>
<g>
<path class="ln" stroke-width="1.265" d="M79.01 86 V82.55 C79.01 78.41 84.99 78.41 84.99 82.55 V86"/>
<path class="pg-gold" stroke-width="0.9" d="M77.4 85.31 H86.6 V90.6 C86.6 93.59 77.4 93.59 77.4 90.6 Z"/>
<path class="ln" stroke-width="0.22" d="M86.23 85.41L86.49 85.62M84.67 85.41L86.49 86.93M83.95 86.11L86.49 88.23M83.95 87.42L86.49 89.54M83.95 88.72L86.46 90.83M83.95 90.03L86.15 91.87M83.95 91.33L85.48 92.61M83.95 92.64L84.48 93.08"/>
<path class="ink" stroke-width="0.2" d="M80.97 88.53 a1.03 1.03 0 1 0 2.07 0 a1.03 1.03 0 1 0 -2.07 0 Z M81.54 88.99 h0.92 l0.46 2.53 h-1.84 Z"/>
</g>
<path class="ln" stroke-width="0.7" d="M102 61 V112M110 61 V112M118 61 V112M126 61 V112M134 61 V112M142 61 V112M96 61 H144 M96 84 H144"/>
<g>
<path class="ln" stroke-width="1.265" d="M99.01 86 V82.55 C99.01 78.41 104.99 78.41 104.99 82.55 V86"/>
<path class="pg-gold" stroke-width="0.9" d="M97.4 85.31 H106.6 V90.6 C106.6 93.59 97.4 93.59 97.4 90.6 Z"/>
<path class="ln" stroke-width="0.22" d="M104.89 85.41L106.49 86.74M103.95 85.92L106.49 88.05M103.95 87.23L106.49 89.35M103.95 88.53L106.48 90.65M103.95 89.84L106.22 91.74M103.95 91.14L105.59 92.52M103.95 92.45L104.64 93.03"/>
<path class="ink" stroke-width="0.2" d="M100.97 88.53 a1.03 1.03 0 1 0 2.07 0 a1.03 1.03 0 1 0 -2.07 0 Z M101.54 88.99 h0.92 l0.46 2.53 h-1.84 Z"/>
</g>
</g>
<g data-ph="2">
<path class="ln" stroke-width="0.8" d="M110 30 V6"/>
<path class="ln" stroke-width="0.2" d="M110.57 6.1L110.79 6.28M110.11 6.76L110.79 7.33M110.11 7.81L110.79 8.37M110.11 8.85L110.79 9.41M110.11 9.9L110.79 10.46M110.11 10.94L110.79 11.5M110.11 11.98L110.79 12.55M110.11 13.03L110.79 13.59M110.11 14.07L110.79 14.64M110.11 15.12L110.79 15.68M110.11 16.16L110.79 16.72M110.11 17.21L110.79 17.77M110.11 18.25L110.79 18.81M110.11 19.29L110.79 19.86M110.11 20.34L110.79 20.9M110.11 21.38L110.79 21.95M110.11 22.43L110.79 22.99M110.11 23.47L110.79 24.03M110.11 24.52L110.79 25.08M110.11 25.56L110.79 26.12M110.11 26.6L110.79 27.17M110.11 27.65L110.79 28.21M110.11 28.69L110.79 29.26M110.11 29.74L110.31 29.9"/>
<path class="ink" stroke-width="0.3" d="M108.8 6 H111.2 L110 3.6 Z"/>
<path class="ln" stroke-width="0.4" d="M110 8 C113 9 115 11 118 12.4"/>
<path class="pap" stroke-width="0.6" d="M118 11 C124 8 132 12 140 9 C148 6 154 10 162 7 L164 18 C156 21 148 17 140 20 C132 23 124 19 118 22 Z"/>
<path class="ln" stroke-width="0.35" d="M162 7 C164 9 163 12 165 13 L164 18"/>
<path class="ln" stroke-width="0.24" d="M161.34 7.45L162.1 8.09M160.28 7.87L162.38 9.63M159.16 8.23L162.66 11.17M158.13 8.67L162.94 12.71M158.25 10.08L163.22 14.25M158.38 11.49L163.5 15.79M158.5 12.9L163.78 17.33M158.62 14.31L163.26 18.2M158.75 15.72L162.24 18.64M158.87 17.13L161.16 19.05M159 18.54L160.04 19.41"/>
<text class="rub" x="140" y="17.4" font-size="6" text-anchor="middle" transform="rotate(-7 140 17.4)">ПРОМПТ</text>
<path class="ln" stroke-width="0.35" d="M168 10 C172 8 176 11 180 9 M168 16 C172 14 176 17 182 15 M166 22 C170 20 174 23 178 21"/>
</g>
</g>
</svg>
